<?xml version="1.0" encoding="UTF-8"?>
<svg width="62px" height="58px" viewBox="0 0 62 58" version="1.1" xmlns="http://www.w3.org/2000/svg" xmlns:xlink="http://www.w3.org/1999/xlink">
    <title>np_campaign_2328694_000000</title>
    <g id="Page-1" stroke="none" stroke-width="1" fill="none" fill-rule="evenodd">
        <g id="1.-Dashboard" transform="translate(-405.000000, -1020.000000)" fill="#FFF3EF" fill-rule="nonzero">
            <g id="np_campaign_2328694_000000" transform="translate(405.000000, 1020.000000)">
                <path d="M56.0882893,0 C54.4951295,0.00329524972 53.0598869,0.965543602 52.4476841,2.43861978 C52.411476,2.48146055 52.3752672,2.52759827 52.3423498,2.57702702 L24.8863399,9.82370804 C24.3070014,8.27816336 22.8323216,7.25322765 21.1832083,7.24993747 L6.04119608,7.24993747 C3.86212494,7.25323272 2.09444733,9.02292692 2.0911609,11.2044902 L2.0911609,11.8701712 L1.2748203,11.8734673 C0.96845241,11.87324 0.548165751,11.942356 0.013960319,12.0808151 L4.61852778e-14,33.9403505 C0.729192523,34.1639047 1.25727594,34.2756817 1.58425025,34.2756817 C1.70933681,34.2756817 1.88379564,34.2756817 2.09116933,34.278977 L2.09116933,34.9314803 C2.09446081,36.8593617 3.48351986,38.5070709 5.38282318,38.8300155 L5.38282318,50.0908945 C5.38282318,54.4573956 8.92138056,58 13.2828935,58 C17.6444065,58 21.1829639,54.4573956 21.1829639,50.0908945 L21.1829639,38.8865392 C22.8320773,38.883244 24.3067571,37.8616879 24.8828091,36.3160589 L52.3784247,43.6121771 C52.3948829,43.6352455 52.4146335,43.6583139 52.4343841,43.6780871 L52.4343841,43.6813824 C53.0400562,45.1676193 54.4818296,46.1398276 56.0848487,46.1431178 L58.0499648,46.1431178 C60.229036,46.1398226 61.9967136,44.3701284 62,42.1885651 L62,3.95151988 C61.9967085,1.76995658 60.2323224,0.00354749746 58.0532512,0 L56.0882893,0 Z M18.549683,50.0910016 C18.549683,53.0041677 16.1928076,55.3637386 13.2829694,55.3637386 C10.3731312,55.3637386 8.0162558,53.0041677 8.0162558,50.0910016 L8.0162558,48.1136831 L18.549683,48.1136831 L18.549683,50.0910016 Z M18.549683,45.4773146 L8.0162558,45.4773146 L8.0162558,38.8863933 L18.549683,38.8863933 L18.549683,45.4773146 Z M22.4997181,12.1932676 L22.4997181,34.9318405 C22.4997181,35.2811572 22.361469,35.6172963 22.1145908,35.8644823 C21.8677125,36.1116682 21.5319574,36.2500501 21.1830145,36.2500501 L6.04100227,36.2500501 C5.6920846,36.2500501 5.3563295,36.1116429 5.10942597,35.8644823 C4.86252244,35.6173216 4.72429859,35.2811826 4.72429859,34.9318405 L4.72429859,11.204524 C4.72429859,10.4762282 5.31351323,9.88633972 6.04097699,9.88633972 L21.1829892,9.88633972 C21.5319068,9.88633972 21.8676619,10.024747 22.1145655,10.2719076 C22.361469,10.5190682 22.4997181,10.8552073 22.4997181,11.2045493 L22.4997181,12.1932676 Z M52.1247713,40.8179023 L25.1330749,33.6535603 L25.1330749,12.4866849 L52.1247713,5.35861935 L52.1247713,40.8179023 Z M59.3665446,42.1855237 L59.3665446,42.188819 C59.3665446,42.5381357 59.2282955,42.8709762 58.9814172,43.1181705 C58.734539,43.3653649 58.3987839,43.507037 58.0498409,43.507037 L56.0847248,43.507037 C55.7358071,43.507037 55.4033469,43.3686298 55.1564349,43.1214692 C54.9095567,42.8743086 54.7713075,42.5381695 54.7713075,42.1921176 L54.7713075,41.5231381 L54.7581407,41.5165476 L54.7581407,4.66306857 L54.7713075,4.65977332 L54.7713075,3.95454264 C54.7713075,3.60522592 54.9095567,3.26908682 55.1564349,3.02190091 C55.4033132,2.77474031 55.7390683,2.63633307 56.0880112,2.63633307 L58.0531274,2.63633307 C58.402045,2.63633307 58.7345053,2.77474031 58.9814172,3.02190091 C59.2283292,3.26906152 59.3665446,3.60190198 59.3665446,3.95125245 L59.3665446,42.1855237 Z" id="Shape"></path>
                <path d="M17.5,15 C16.6712512,15 16,15.5753582 16,16.2857143 L16,31.7142857 C16,32.4246418 16.6712512,33 17.5,33 C18.3287488,33 19,32.4246418 19,31.7142857 L19,16.2857143 C19,15.5753582 18.3287488,15 17.5,15 Z" id="Path"></path>
                <path d="M11.5,15 C10.6712512,15 10,15.5753582 10,16.2857143 L10,31.7142857 C10,32.4246418 10.6712512,33 11.5,33 C12.3287488,33 13,32.4246418 13,31.7142857 L13,16.2857143 C13,15.5753582 12.3287488,15 11.5,15 Z" id="Path"></path>
            </g>
        </g>
    </g>
</svg>