<svg width="60" height="60" xmlns="http://www.w3.org/2000/svg">
    <g fill="none" fill-rule="evenodd">
        <rect fill="#FFF5EB" width="60" height="60" rx="12"/>
        <g fill="#FEA531" fill-rule="nonzero">
            <path d="M30.944 38.583h-8.8A6.151 6.151 0 0 1 16 32.439v-8.295A6.151 6.151 0 0 1 22.144 18H36.07a6.151 6.151 0 0 1 6.144 6.144v4.864a1.024 1.024 0 1 1-2.048 0v-4.864a4.1 4.1 0 0 0-4.096-4.096H22.144a4.1 4.1 0 0 0-4.096 4.096v8.295a4.1 4.1 0 0 0 4.096 4.096h8.8a1.024 1.024 0 1 1 0 2.048zm1.89-8.427 4.933-3.764a1.024 1.024 0 0 0-1.243-1.628l-4.933 3.763a4.106 4.106 0 0 1-4.968 0l-4.882-3.723a1.024 1.024 0 1 0-1.242 1.628l4.882 3.724a6.136 6.136 0 0 0 3.726 1.255c1.315 0 2.63-.419 3.726-1.255z"/>
            <path d="M39 31.6c2.978 0 5.4 2.422 5.4 5.4s-2.422 5.4-5.4 5.4a5.406 5.406 0 0 1-5.4-5.4c0-2.978 2.422-5.4 5.4-5.4zm0 1.6a3.804 3.804 0 0 0-3.8 3.8c0 2.095 1.705 3.8 3.8 3.8 2.095 0 3.8-1.705 3.8-3.8 0-2.095-1.705-3.8-3.8-3.8zm.08 1.64c.377 0 .682.284.682.634v1.299h1.157c.376 0 .681.283.681.633 0 .35-.305.634-.68.634h-1.84c-.375 0-.68-.284-.68-.634v-1.932c0-.35.305-.634.68-.634z"/>
        </g>
    </g>
</svg>
