<svg xmlns="http://www.w3.org/2000/svg" width="54" height="54" viewBox="0 0 54 54">
    <g fill="none" fill-rule="evenodd">
        <g>
            <g>
                <g>
                    <g transform="translate(-701.000000, -1250.000000) translate(10.000000, -1.000000) translate(647.000000, 1179.000000) translate(44.000000, 72.000000)">
                        <rect width="54" height="54" fill="#DBF2E3" rx="12"/>
                        <g fill="#10D755" fill-rule="nonzero">
                            <path d="M19.478 17.435c-2.335 0-4.235-1.9-4.235-4.234 0-2.335 1.9-4.234 4.235-4.234 2.334 0 4.234 1.9 4.234 4.234 0 2.335-1.9 4.234-4.234 4.234zm0-6.476c-1.236 0-2.242 1.006-2.242 2.242s1.006 2.242 2.242 2.242 2.241-1.006 2.241-2.242-1.005-2.242-2.241-2.242zm-7.92 13.55c0-.55-.447-.996-.997-.996H5.977c-2.197 0-3.984-1.788-3.984-3.984V5.977c0-2.197 1.787-3.984 3.984-3.984h9.169c2.197 0 3.984 1.787 3.984 3.984 0 .55.446.996.996.996s.997-.446.997-.996C21.123 2.68 18.44 0 15.145 0H5.977C2.68 0 0 2.681 0 5.977v13.551c0 3.296 2.681 5.977 5.977 5.977h4.584c.55 0 .996-.446.996-.996zM13.2 11.308c0-.55-.446-.996-.996-.996H7.323c-.55 0-.996.446-.996.996s.446.996.996.996h4.882c.55 0 .996-.446.996-.996zm0 7.622c0-.55-.446-.997-.996-.997H7.323c-.55 0-.996.446-.996.997 0 .55.446.996.996.996h4.882c.55 0 .996-.446.996-.996zm0-3.836c0-.55-.446-.996-.996-.996H7.323c-.55 0-.996.446-.996.996s.446.996.996.996h4.882c.55 0 .996-.446.996-.996z" transform="translate(14.000000, 14.000000)"/>
                            <path d="M24.509 25.505c-.55 0-.996-.446-.996-.996 0-1.978-1.599-3.587-3.563-3.587h-.845c-1.964 0-3.563 1.61-3.563 3.587 0 .55-.446.996-.996.996s-.996-.446-.996-.996c0-3.076 2.492-5.58 5.555-5.58h.845c3.063 0 5.555 2.504 5.555 5.58 0 .55-.446.996-.996.996zM15.194 7.472c0-.55-.446-.996-.997-.996H7.323c-.55 0-.996.446-.996.996s.446.997.996.997h6.874c.55 0 .997-.446.997-.997z" transform="translate(14.000000, 14.000000)"/>
                        </g>
                    </g>
                </g>
            </g>
        </g>
    </g>
</svg>
