<svg version="1.2" xmlns="http://www.w3.org/2000/svg" viewBox="0 0 25 25" width="25" height="25">
	<title>thunder-svg</title>
	<style>
		.s0 { fill: #f59d0e }
		.s1 { fill: #f9bb01 }
		.s2 { fill: #fcdb05 }
		.s3 { fill: #fefefe }
		.s4 { fill: #fdd75f }
		.s5 { fill: #fcea6f }
		.s6 { fill: #fcc765 }
		.s7 { fill: #bab9b8 }
	</style>
	<g id="Layer_x0020_1">
		<g id="_1313467585536">
			<path id="Layer" class="s0" d="m25 12.8q0 1.3-0.3 2.5-0.2 1.2-0.7 2.3-0.5 1.1-1.1 2-0.7 1-1.5 1.8-0.8 0.9-1.8 1.5-1 0.7-2.1 1.1-1.1 0.5-2.3 0.8-1.2 0.2-2.4 0.2-1.3 0-2.5-0.2-1.1-0.3-2.2-0.8-1.1-0.4-2.1-1.1-1-0.6-1.8-1.5-0.8-0.8-1.5-1.8-0.7-0.9-1.1-2-0.5-1.1-0.7-2.3-0.3-1.2-0.3-2.5 0-1.2 0.3-2.4 0.2-1.2 0.7-2.3 0.4-1.1 1.1-2.1 0.7-0.9 1.5-1.8 0.8-0.8 1.8-1.5 1-0.6 2.1-1.1 1.1-0.4 2.2-0.7 1.2-0.2 2.5-0.2 1.2 0 2.4 0.2 1.2 0.3 2.3 0.7 1.1 0.5 2.1 1.1 1 0.7 1.8 1.5 0.8 0.9 1.5 1.8 0.6 1 1.1 2.1 0.5 1.1 0.7 2.3 0.3 1.2 0.3 2.4z"/>
			<path id="Layer" class="s1" d="m12.1 23.2q-2.2 0-4.3-0.9-1.9-0.8-3.5-2.4-1.5-1.5-2.3-3.5-0.9-2-0.9-4.2 0-2.3 0.9-4.3 0.8-2 2.3-3.5 1.6-1.5 3.5-2.4 2.1-0.8 4.3-0.8 2.3 0 4.3 0.8 2 0.9 3.5 2.4 1.5 1.5 2.4 3.5 0.8 2 0.8 4.3 0 2.2-0.8 4.2-0.9 2-2.4 3.5-1.5 1.6-3.5 2.4-2 0.9-4.3 0.9z"/>
			<path id="Layer" fill-rule="evenodd" class="s2" d="m14.6 0.2q1.1 0.3 2.3 0.8 1 0.4 2 1.1 1 0.6 1.8 1.5 0.8 0.8 1.5 1.8 0.7 0.9 1.1 2 0.5 1.1 0.7 2.3 0.3 1.2 0.3 2.5 0 1.2-0.3 2.4-0.2 1.2-0.7 2.3-0.4 1.1-1.1 2.1-0.7 0.9-1.5 1.8-0.8 0.8-1.8 1.4-1 0.7-2 1.2-1.2 0.4-2.3 0.7-1.2 0.2-2.5 0.2-1.2 0-2.4-0.2-1.2-0.3-2.3-0.7-1.1-0.5-2.1-1.2-1-0.6-1.8-1.4-0.8-0.9-1.5-1.8-0.6-1-1.1-2.1-0.5-1.1-0.7-2.3-0.2-1.2-0.2-2.4 0-1.3 0.2-2.5 0.2-1.2 0.7-2.3 0.5-1.1 1.1-2 0.7-1 1.5-1.8 0.8-0.9 1.8-1.5 1-0.7 2.1-1.1 1.1-0.5 2.3-0.8 1.2-0.2 2.4-0.2 1.3 0 2.5 0.2zm-12.3 12c0 5.4 4.4 9.8 9.8 9.8 5.5 0 9.9-4.4 9.9-9.8 0-5.5-4.4-9.9-9.9-9.9-5.4 0-9.8 4.4-9.8 9.9z"/>
			<path id="Layer" fill-rule="evenodd" class="s2" d="m24.3 12.2q0 1.2-0.3 2.4-0.2 1.2-0.7 2.3-0.4 1.1-1.1 2.1-0.7 0.9-1.5 1.8-0.8 0.8-1.8 1.4-1 0.7-2 1.2-0.8 0.3-1.5 0.5-0.4 0.1-0.8 0.2-1.2 0.2-2.5 0.2-0.3 0-0.5 0-1 0-1.9-0.2-1.2-0.3-2.3-0.7-1.1-0.5-2.1-1.2-0.8-0.5-1.6-1.3-0.1 0-0.2-0.1-0.8-0.9-1.5-1.8-0.6-1-1.1-2.1-0.5-1.1-0.7-2.3-0.2-0.9-0.2-1.9 0-0.3 0-0.5 0-1.3 0.2-2.5 0.1-0.4 0.2-0.8 0.2-0.8 0.5-1.5 0.5-1.1 1.1-2 0.7-1 1.5-1.8 0.8-0.9 1.8-1.5 1-0.7 2.1-1.1 1.1-0.5 2.3-0.8 1.2-0.2 2.4-0.2 1.3 0 2.5 0.2 1.1 0.3 2.3 0.8 1 0.4 2 1.1 1 0.6 1.8 1.5 0.1 0.1 0.2 0.1 0.7 0.8 1.3 1.7 0.7 0.9 1.1 2 0.5 1.1 0.7 2.3 0.3 1.2 0.3 2.5zm-2.3 0c0-2.7-1.1-5-2.7-6.8-1.8-1.9-4.4-3.1-7.2-3.1-5 0-9.1 3.7-9.7 8.5q-0.1 0.7-0.1 1.4 0 1.8 0.6 3.5c0.5 1.4 1.4 2.6 2.4 3.6 1 0.9 2.1 1.6 3.3 2.1q1.7 0.6 3.5 0.6 0.7 0 1.3-0.1c4.9-0.6 8.6-4.7 8.6-9.7z"/>
			<path id="Layer" class="s0" d="m19.3 5.4c-1.8-1.7-4.2-2.7-6.8-2.7-5.5 0-9.9 4.4-9.9 9.8 0 2.7 1.1 5 2.7 6.8-1.9-1.8-3-4.3-3-7.1 0-5.5 4.4-9.9 9.8-9.9 2.8 0 5.4 1.2 7.2 3.1z"/>
			<path id="Layer" class="s0" d="m16.5 8.1q1.4 1.1 1.8 3h-2.8q-0.3-0.8-0.9-1.2-0.7-0.5-1.6-0.4-1.1-0.1-1.9 0.8-0.7 0.9-0.7 2.3 0 1.4 0.7 2.3 0.8 0.8 1.9 0.8 0.9 0 1.6-0.4 0.6-0.5 0.9-1.2h2.8q-0.4 1.9-1.8 3-1.3 1.1-3.4 1.1-1.6 0-2.8-0.7-1.3-0.7-1.9-2-0.7-1.3-0.7-2.9 0-1.6 0.7-2.9 0.6-1.3 1.9-2 1.2-0.7 2.8-0.7 2.1 0 3.4 1.1z"/>
			<path id="Layer" class="s3" d="m15.7 8q1.4 1.1 1.8 3h-2.9q-0.3-0.8-0.9-1.2-0.7-0.4-1.5-0.4-1.2 0-1.9 0.8-0.7 0.9-0.7 2.3 0 1.4 0.7 2.3 0.7 0.8 1.9 0.8 0.8 0 1.5-0.4 0.6-0.5 0.9-1.2h2.9q-0.4 1.9-1.8 3-1.4 1.1-3.5 1.1-1.6 0-2.8-0.7-1.2-0.7-1.9-2-0.6-1.3-0.6-2.9 0-1.6 0.6-2.9 0.7-1.3 1.9-2 1.2-0.7 2.8-0.7 2.1 0 3.5 1.1z"/>
			<path id="Layer" fill-rule="evenodd" class="s4" d="m12.1 22q0 0 0 0 0 0 0 0 0 0 0 0 0 0 0 0 0 0 0 0 0 0 0 0 0 0 0 0 0 0 0 0 0 0 0 0 0 0 0 0 0 0 0 0 0 0 0 0 0 0 0 0 0 0 0 0 0 0 0 0 0 0 0 0 0 0 0 0 0 0 0 0-0.1 0-0.1 0 0 0 0 0 0 0 0 0 0 0 0 0 0 0 0 0 0 0 0 0 0 0 0 0 0 0 0 0 0 0 0 0 0 0 0 0 0 0 0 0 0 0 0 0 0 0 0 0 0 0 0 0 0 0 0 0 0 0 0 0 0 0 0 0 0 0 0 0 0 0 0 0 0 0 0 0 0 0 0 0 0 0 0 0 0 0 0 0 0 0 0 0 0 0 0 0 0 0 0 0 0 0-0.1 0 0 0 0 0 0 0 0 0 0 0 0 0 0 0 0 0 0 0 0 0 0 0 0 0 0 0 0 0 0 0 0 0 0 0 0 0 0 0 0 0 0 0 0 0 0 0 0 0 0 0 0 0 0 0 0 0 0 0 0 0 0 0 0 0 0 0 0 0 0 0 0 0 0 0 0 0 0 0 0 0 0 0 0 0 0 0 0 0 0 0 0 0 0 0 0 0 0 0 0 0 0 0 0 0 0 0-0.1 0 0 0 0 0 0 0 0 0 0 0 0 0 0 0 0 0 0 0 0 0 0 0 0 0 0 0 0 0 0 0 0 0 0 0 0 0 0 0 0 0 0 0 0 0 0 0 0 0 0 0 0 0 0 0 0 0 0 0 0 0 0 0 0 0 0 0 0 0 0 0 0 0 0 0 0 0 0 0 0 0 0 0 0 0 0 0 0 0 0 0 0 0 0 0 0 0 0 0 0 0 0 0 0 0 0 0 0 0 0 0 0 0-0.1 0-0.1 0 0 0 0 0 0 0 0 0 0 0 0 0 0 0 0 0 0 0 0 0 0 0 0 0 0 0 0 0 0 0 0 0 0 0 0 0 0 0 0 0 0 0 0 0 0 0 0 0 0 0 0 0 0 0 0 0 0 0 0 0 0 0 0 0 0 0 0 0 0 0 0 0 0 0 0 0 0 0 0 0 0 0 0 0 0 0 0 0 0 0 0 0 0 0 0 0 0 0 0 0 0 0 0 0 0 0 0 0-0.1 0-0.1 0 0 0 0 0 0 0 0 0 0 0 0 0 0 0 0 0 0 0 0 0 0 0 0 0 0 0 0 0 0 0 0 0 0 0 0 0 0 0 0 0 0 0 0 0 0 0 0 0 0 0 0 0 0 0 0 0 0 0 0 0 0 0 0 0 0 0 0 0 0 0 0 0 0 0 0 0 0 0 0 0 0 0 0 0 0 0 0 0 0 0 0 0 0 0-0.1 0 0 0 0 0 0 0 0 0-0.5 0-1.1-0.1 0 0 0 0 0 0 0 0 0 0 0 0 0 0 0 0 0 0 0 0 0 0 0 0 0 0 0 0 0 0 0 0 0 0 0 0 0 0 0 0 0 0 0 0 0 0 0 0 0 0 0 0 0 0-0.1 0 0 0 0 0 0 0 0 0 0 0 0 0 0 0 0 0 0 0 0 0 0 0 0 0 0 0 0 0 0 0 0 0 0 0 0 0 0 0 0 0 0 0 0 0 0-0.1 0-0.1 0 0 0 0 0 0 0 0 0 0 0 0 0 0 0 0 0 0 0 0 0 0 0 0 0 0 0 0 0 0 0 0 0 0 0 0 0 0 0 0 0 0 0 0 0 0 0 0 0 0 0 0 0 0 0 0 0 0 0 0-0.8-0.1-1.5-0.4l-5.6-5.5q-0.6-1.6-0.6-3.4 0-0.7 0.1-1.4l4.2 4.1v2.9h0.8v0.1h2.1l3.7 3.7q-0.5 0.1-1.1 0.1 0 0 0 0 0 0 0 0 0 0 0 0 0 0 0 0 0 0 0 0 0 0 0 0 0 0 0 0 0 0 0 0 0 0 0 0 0 0 0 0 0 0 0 0 0 0 0 0 0 0 0 0 0 0 0 0 0 0 0 0 0 0 0 0 0 0 0 0 0 0 0 0 0 0 0 0 0 0 0 0 0 0 0 0 0 0 0 0 0 0 0 0 0 0 0 0 0 0 0 0 0 0 0 0 0 0 0 0 0 0 0 0-0.1 0-0.1 0 0 0 0 0 0 0 0 0 0 0 0 0 0 0 0 0 0 0 0 0 0 0 0 0 0 0 0 0 0 0 0 0 0 0 0 0 0 0 0 0 0 0 0 0 0 0 0 0 0 0 0 0 0 0 0 0 0 0 0 0 0 0 0 0 0 0 0 0 0 0 0 0 0 0 0 0 0 0 0 0 0 0 0 0 0 0 0 0 0 0 0 0 0 0 0 0 0 0 0 0-0.1 0-0.1 0 0 0 0 0 0 0 0 0 0 0 0 0 0 0 0 0 0 0 0 0 0 0 0 0 0 0 0 0 0 0 0 0 0 0 0 0 0 0 0 0 0 0 0 0 0 0 0 0 0 0 0 0 0 0 0 0 0 0 0 0 0 0 0 0 0 0 0 0 0 0 0 0 0 0 0 0 0 0 0 0 0 0 0 0 0 0 0 0 0 0 0 0 0 0 0 0 0 0 0 0 0 0 0 0 0 0 0 0 0 0 0 0 0 0 0 0 0 0 0 0 0 0 0 0 0 0 0 0 0 0 0 0 0 0 0 0 0 0-0.1 0 0 0 0 0 0 0 0 0 0 0 0 0 0 0 0 0 0 0 0 0 0 0 0 0 0 0 0 0 0 0 0 0 0 0 0 0 0 0 0 0zm-9.2-6.5q-0.1-0.2-0.2-0.4 0 0 0 0 0 0 0 0 0 0 0 0 0 0 0 0 0 0 0 0 0 0 0 0 0 0 0 0 0.1 0.2 0.2 0.4zm-0.2-0.4q0 0 0 0 0 0 0 0 0 0 0 0zm0 0q0 0 0 0-0.4-1.3-0.4-2.6 0 0 0 0 0 1.3 0.4 2.6 0 0 0 0zm-0.4-2.6q0 0 0 0 0 0 0 0 0 0 0 0zm0 0q0 0 0 0 0 0 0 0zm0 0q0 0 0 0 0 0 0 0 0 0 0 0zm0 0q0 0 0 0 0 0 0 0zm0 0q0 0 0 0 0 0 0 0 0 0 0 0 0 0 0 0zm0 0q0 0 0 0 0 0 0 0zm0 0q0 0 0 0 0 0 0 0 0 0 0 0 0 0 0 0zm0 0q0 0 0 0 0 0 0 0zm0 0q0 0 0 0 0 0 0 0zm0 0q0 0 0 0 0-0.1 0-0.1 0 0 0 0 0 0 0 0.1zm0-0.1q0 0 0 0 0 0 0 0zm0 0q0 0 0 0 0 0 0 0 0 0 0 0zm0 0q0 0 0 0 0 0 0 0zm0 0q0 0 0 0 0 0 0 0 0 0 0 0zm0 0q0 0 0 0 0 0 0 0 0 0 0 0zm0 0q0 0 0 0 0 0 0 0 0 0 0 0 0 0 0 0zm0 0q0 0 0 0 0 0 0 0 0 0 0 0 0 0 0 0 0 0 0 0 0 0 0 0zm0 0q0 0 0 0 0 0 0 0 0 0 0 0 0 0 0 0zm0 0q0 0 0 0 0 0 0 0 0 0 0 0 0 0 0 0zm0 0q0 0 0 0 0 0 0 0 0 0 0 0zm0 0q0 0 0 0 0 0 0 0 0 0 0 0zm0 0q0 0 0 0 0 0 0 0 0 0 0 0zm0 0q0 0 0 0 0 0 0 0 0 0 0 0zm0 0q0 0 0 0 0 0 0 0 0 0 0 0zm0 0q0 0 0 0 0 0 0 0zm0 0q0 0 0 0 0 0 0 0 0 0 0 0zm0-0.1q0 0 0 0 0 0 0 0zm0 0q0 0 0 0 0 0 0 0zm0 0q0 0 0 0 0 0 0 0 0 0 0 0zm0 0q0 0 0 0 0 0 0 0zm0 0q0 0 0 0 0 0 0 0 0 0 0 0zm0 0zm0 0q0 0 0 0 0 0 0 0 0 0 0 0zm0 0q0 0 0 0 0 0 0 0 0 0 0 0zm0 0q0 0 0 0 0 0 0 0zm0 0q0 0 0 0 0 0 0 0 0 0 0 0zm0 0q0 0 0 0 0 0 0 0 0 0 0 0zm0 0q0 0 0 0 0 0 0 0 0 0 0 0zm0-0.1q0 0 0 0 0 0 0 0 0 0 0 0zm0 0q0 0 0 0 0 0 0 0 0 0 0 0zm0 0q0 0 0 0 0 0 0 0zm0 0q0 0 0 0 0 0 0 0zm0 0q0 0 0 0 0 0 0 0 0 0 0 0 0 0 0 0zm0 0q0 0 0 0 0 0 0 0 0 0 0 0 0 0 0 0zm0 0q0 0 0 0zm0 0q0 0 0 0 0 0 0 0 0 0 0 0 0 0 0 0zm0 0q0 0 0 0 0 0 0 0 0 0 0 0 0 0 0 0zm0-0.1q0-0.7 0.1-1.3-0.1 0.6-0.1 1.3z"/>
			<path id="Layer" fill-rule="evenodd" class="s5" d="m12.1 22q0 0 0 0 0 0 0 0zm0 0q0 0 0 0 0 0 0 0zm0 0q0 0 0 0 0 0 0 0zm0 0q0 0 0 0 0 0 0 0zm0 0q0 0 0 0 0 0 0 0zm0 0q0 0 0 0 0 0 0 0zm0 0q0 0 0 0 0 0 0 0zm0 0q0 0 0 0 0 0 0 0zm0 0q0 0 0 0 0 0 0 0zm0 0q0 0 0 0 0 0 0 0zm0.1 0q0 0 0 0 0 0 0 0zm0 0q0 0 0 0 0 0 0 0zm-0.1 0q0 0 0 0 0 0 0 0zm0.1 0q0 0 0 0 0 0 0 0zm-0.1 0q0 0 0 0 0 0 0 0zm0.1 0q0 0 0 0 0 0 0 0zm-0.1 0q0 0 0 0 0 0 0 0zm0.1 0q0 0 0 0 0 0 0 0zm0 0q0 0 0 0 0 0 0 0zm-0.1 0q0 0 0 0 0 0 0 0zm0.1 0q0 0 0 0 0 0 0 0zm-0.2 0q0 0 0 0 0 0 0 0zm0.2 0q0 0 0 0 0 0 0 0zm0 0q0 0 0 0 0 0 0 0zm-0.2 0q0 0 0 0zm0.2 0q0 0 0 0 0 0 0 0zm-0.2 0q0 0 0 0 0 0 0 0zm0.2 0q0 0 0 0 0 0 0 0zm-0.2 0q0 0 0 0 0 0 0 0zm0.2 0q0 0 0 0 0 0 0 0zm0 0q0 0 0 0 0 0 0 0zm-0.2 0q0 0 0 0 0 0 0 0zm0.2 0q0 0 0 0 0 0 0 0zm-0.2 0q0 0 0 0 0 0 0 0zm0.2 0q0 0 0 0 0 0 0 0zm-0.2 0q0 0 0 0 0 0 0 0zm0.2 0q0 0 0 0zm0 0q0 0 0 0 0 0 0 0zm-0.2 0q0 0 0 0 0 0 0 0zm0.2 0q0 0 0 0 0 0 0 0zm-0.2 0q0 0 0 0 0 0 0 0zm0.3 0q0 0 0 0 0 0 0 0zm-0.3 0q0 0 0 0 0 0 0 0zm0.3 0q0 0 0 0 0 0 0 0zm-0.3 0q0 0 0 0 0 0 0 0zm0 0q0 0 0 0 0 0 0 0zm0.3 0q0 0 0 0 0 0 0 0zm0 0q0 0 0 0 0 0 0 0zm-0.3 0q0 0 0 0 0 0 0 0zm0 0q0 0-0.1 0 0.1 0 0.1 0zm0.3 0q0 0 0 0 0 0 0 0zm-0.4 0q0 0 0 0 0 0 0 0zm0.4 0q0 0 0 0 0 0 0 0zm-0.4 0q0 0 0 0 0 0 0 0zm0.4 0q0 0 0 0zm-0.4 0q0 0 0 0 0 0 0 0zm0.4 0q0 0 0 0 0 0 0 0zm-0.4 0q0 0 0 0 0 0 0 0zm0.4 0q0 0 0 0zm-0.4 0q0 0 0 0 0 0 0 0zm0.4 0q0 0 0 0 0 0 0 0zm-0.4 0q0 0 0 0 0 0 0 0zm0.4 0q0 0 0 0 0 0 0 0zm0 0q0 0 0 0zm-0.4 0q0 0 0 0 0 0 0 0zm0.4 0q0 0 0 0 0 0 0 0zm-0.4 0q0 0 0 0 0 0 0 0zm0.4 0q0 0 0 0zm-0.4 0q0 0 0 0 0 0 0 0zm0.4 0q0 0 0 0 0 0 0 0zm0.1 0q0 0 0 0 0 0 0 0zm-0.5 0q0 0 0 0 0 0 0 0zm0.5 0q0 0 0 0 0 0 0 0zm-0.5 0q0 0 0 0 0 0 0 0zm0.5 0q0 0 0 0 0 0 0 0zm0 0q0 0 0 0 0 0 0 0zm-0.5 0q0 0 0 0 0 0 0 0zm0.5 0q0 0 0 0 0 0 0 0zm-0.5 0q0 0 0 0 0 0 0 0zm0.5 0q0 0 0 0 0 0 0 0zm-0.6 0q0 0 0 0 0 0 0 0zm0.6 0q0 0 0 0 0 0 0 0zm0 0q0 0 0 0 0 0 0 0zm-0.6 0q0 0 0 0 0 0 0 0zm0.6 0q0 0 0 0 0 0 0 0zm-0.6 0q0 0 0 0 0 0 0 0zm0.6 0q0 0 0 0 0 0 0 0zm0 0q0 0 0 0 0 0 0 0zm-0.6 0q0 0 0 0 0 0 0 0zm0.6 0q0 0 0 0 0 0 0 0zm-0.6 0q0 0 0 0 0 0 0 0zm0.6 0q0 0 0 0 0 0 0 0zm-0.6 0q0 0 0 0 0 0 0 0zm0.6 0q0 0 0 0 0 0 0 0zm-0.6 0q0 0 0 0 0 0 0 0zm0 0q0 0 0 0 0 0 0 0zm0.6 0q0.6 0 1.1-0.1 0 0-0.1 0-0.5 0.1-1 0.1zm-0.6 0q0 0 0 0 0 0 0 0zm0 0q0 0 0 0 0 0 0 0zm0 0q0 0 0 0 0 0 0 0zm0 0q0 0 0 0 0 0 0 0zm0 0q0 0 0 0 0 0 0 0zm0 0q0 0 0 0 0 0 0 0zm-0.1 0q0 0 0 0 0 0 0 0zm0 0q0 0 0 0 0 0 0 0zm0 0q0 0 0 0 0 0 0 0zm0 0q0 0 0 0 0 0 0 0zm0 0q0 0 0 0 0 0 0 0zm0 0q0 0 0 0 0 0 0 0zm0 0q0 0 0 0 0 0 0 0zm0 0q0 0 0 0 0 0 0 0zm0 0q0 0 0 0 0 0 0 0zm0 0q0 0 0 0 0 0 0 0zm0 0q0 0 0 0 0 0 0 0zm0 0q0 0 0 0 0 0 0 0zm0 0q0 0 0 0 0 0 0 0zm0 0q0 0 0 0 0 0 0 0zm0 0q-0.1 0-0.1 0 0 0 0.1 0zm-0.1 0q0 0 0 0 0 0 0 0zm0 0q0 0 0 0 0 0 0 0zm0 0q0 0 0 0 0 0 0 0zm0 0q0 0 0 0 0 0 0 0zm0 0q0 0 0 0 0 0 0 0zm0 0q0 0 0 0 0 0 0 0zm0 0q0 0 0 0 0 0 0 0zm0 0q0 0 0 0 0 0 0 0zm0 0q0 0 0 0 0 0 0 0zm0 0q0 0 0 0 0 0 0 0zm0 0q0 0 0 0 0 0 0 0zm0 0q0 0-0.1 0 0.1 0 0.1 0zm-0.1 0q0 0 0 0 0 0 0 0zm0 0q-0.5 0-1.1-0.1 0.6 0.1 1.1 0.1zm-1.1-0.1q0 0 0 0 0 0 0 0zm0 0q0 0 0 0 0 0 0 0zm0 0q0 0 0 0 0 0 0 0zm0 0q0 0 0 0 0 0 0 0zm0 0q0 0 0 0 0 0 0 0zm0 0q0 0 0 0 0 0 0 0zm0 0q-0.1 0-0.1 0 0 0 0.1 0zm-0.1 0q0 0 0 0 0 0 0 0zm0 0q0 0 0 0 0 0 0 0zm0 0q0 0 0 0 0 0 0 0zm0 0q0 0 0 0 0 0 0 0zm0 0q0 0 0 0 0 0 0 0zm0 0q0-0.1 0-0.1 0 0 0 0.1zm0-0.1q0 0 0 0 0 0 0 0zm0 0q0 0 0 0 0 0 0 0zm0 0q0 0 0 0 0 0 0 0zm0 0q0 0 0 0 0 0 0 0zm0 0q0 0 0 0 0 0 0 0zm0 0q0 0 0 0 0 0 0 0zm0 0q0 0 0 0 0 0 0 0zm0 0q0 0 0 0zm-7.6-6.7q0 0 0 0 0 0 0 0zm0 0q0 0 0 0 0 0 0 0zm0 0q0 0 0 0 0 0 0 0zm0 0q0 0 0 0 0 0 0 0zm0 0q0 0 0 0 0 0 0 0zm0 0q-0.4-1.3-0.4-2.6 0 1.3 0.4 2.6zm-0.4-2.6q0 0 0 0 0 0 0 0 0 0 0 0zm0 0q0 0 0 0 0 0 0 0 0 0 0 0zm0 0q0 0 0 0 0 0 0 0 0 0 0 0 0 0 0 0zm0 0q0 0 0 0 0 0 0 0 0 0 0 0zm0 0q0 0 0 0 0 0 0 0 0 0 0 0 0 0 0 0zm0-0.1q0 0 0 0 0 0 0 0 0 0 0 0 0 0 0 0 0 0 0 0zm0 0q0 0 0 0 0 0 0 0 0 0 0 0zm0 0q0 0 0 0 0 0 0 0 0 0 0 0zm0 0q0 0 0 0 0 0 0 0zm0 0q0 0 0 0 0 0 0 0zm0 0q0 0 0 0 0 0 0 0zm0 0q0 0 0 0 0 0 0 0zm0 0q0 0 0 0 0 0 0 0zm0 0q0 0 0 0 0 0 0 0zm0 0q0 0 0 0 0 0 0 0 0 0 0 0zm0 0q0 0 0 0 0 0 0 0 0 0 0 0 0 0 0 0zm0 0q0 0 0 0 0 0 0 0 0 0 0 0zm0 0q0 0 0 0 0 0 0 0zm0 0q0 0 0 0 0 0 0 0 0 0 0 0zm0-0.1q0 0 0 0 0 0 0 0zm0 0q0 0 0 0 0 0 0 0zm0 0q0 0 0 0 0 0 0 0 0 0 0 0zm0 0q0 0 0 0 0 0 0 0 0 0 0 0zm0 0q0 0 0 0 0 0 0 0 0 0 0 0zm0 0q0 0 0 0 0 0 0 0zm0 0q0 0 0 0 0 0 0 0 0 0 0 0zm0 0q0 0 0 0 0 0 0 0zm0 0q0 0 0 0 0 0 0 0zm0 0q0 0 0 0 0 0 0 0zm0 0q0 0 0 0 0 0 0 0zm0 0q0 0 0 0 0 0 0 0 0 0 0 0zm0 0q0 0 0 0 0 0 0 0zm0 0q0 0 0 0 0 0 0 0zm0-0.1q0 0 0 0zm0 0q0 0 0 0 0 0 0 0zm0 0q0 0 0 0 0 0 0 0zm0 0q0 0 0 0 0 0 0 0zm0 0q0 0 0 0 0 0 0 0zm0 0q0 0 0 0 0 0 0 0zm0 0q0 0 0 0 0 0 0 0zm0 0zm0 0q0 0 0 0 0 0 0 0zm0 0q0 0 0 0 0 0 0 0zm0 0q0 0 0 0 0 0 0 0zm0 0q0 0 0 0 0 0 0 0zm0 0q0 0 0 0 0 0 0 0zm0-0.1q0 0 0 0 0 0 0 0zm0 0q0 0 0 0 0 0 0 0zm0 0q0 0 0 0 0 0 0 0zm0 0q0 0 0 0 0 0 0 0zm0 0q0 0 0 0 0 0 0 0zm0 0q0 0 0 0 0 0 0 0zm0 0q0 0 0 0 0 0 0 0zm0 0q0 0 0 0 0 0 0 0zm0 0q0 0 0 0 0 0 0 0zm0 0q0 0 0 0 0 0 0 0zm0 0q0 0 0 0 0 0 0 0zm0 0q0 0 0 0 0 0 0 0zm0 0q0 0 0 0 0 0 0 0zm0 0q0-0.7 0.1-1.3 0 0 0 0-0.1 0.6-0.1 1.3z"/>
			<path id="Layer" class="s5" d="m12.2 24.3q-0.3 0-0.6 0l-2.8-2.9q0.7 0.3 1.5 0.4 0 0 0 0 0 0 0 0 0 0 0 0 0 0 0 0 0 0 0 0 0 0 0 0 0 0 0 0 0 0 0 0 0 0 0 0 0 0 0 0 0 0 0 0 0 0 0 0 0 0 0 0 0 0 0 0 0 0 0 0 0 0 0 0 0 0 0 0.1 0 0 0 0 0 0 0 0 0 0 0 0 0 0 0 0 0 0 0 0 0 0 0 0 0 0 0 0 0 0 0 0 0 0 0 0 0 0 0 0 0 0 0 0 0.1 0 0.1 0 0 0 0 0 0 0 0 0 0 0 0 0 0 0 0 0 0 0 0 0 0 0 0 0 0 0 0 0 0 0 0 0 0 0 0 0 0 0 0 0 0 0 0 0 0 0 0 0 0 0 0 0 0.6 0.1 1.1 0.1 0 0 0 0 0 0 0 0 0.1 0 0.1 0 0 0 0 0 0 0 0 0 0 0 0 0 0 0 0 0 0 0 0 0 0 0 0 0 0 0 0 0 0 0 0 0 0 0 0 0 0 0 0 0 0 0 0 0 0 0 0 0 0 0 0 0 0 0 0 0 0 0 0 0 0 0 0 0 0 0 0 0 0 0 0 0 0 0 0 0 0 0 0 0 0 0 0 0 0 0 0 0 0 0 0 0 0 0 0.1 0 0 0 0 0 0 0 0 0 0 0 0 0 0 0 0 0 0 0 0 0 0 0 0 0 0 0 0 0 0 0 0 0 0 0 0 0 0 0 0 0 0 0 0 0 0 0 0 0 0 0 0 0 0 0 0 0 0 0 0 0 0 0 0 0 0 0 0 0 0 0 0 0 0 0 0 0 0 0 0 0 0 0 0 0 0 0 0 0 0 0 0 0 0 0 0 0 0 0 0 0 0 0 0 0 0 0 0 0 0 0 0.1 0 0 0 0 0 0 0 0 0 0 0 0 0 0 0 0 0 0 0 0 0 0 0 0 0 0 0 0 0 0 0 0 0 0 0 0 0 0 0 0 0 0 0 0 0 0 0 0 0 0 0 0 0 0 0 0 0 0 0 0 0 0 0 0 0 0 0 0 0 0 0 0 0 0 0 0 0 0 0 0 0 0 0 0 0 0 0 0 0 0 0 0 0 0 0 0 0 0 0 0 0 0 0 0 0 0 0 0 0 0 0 0 0 0.1 0 0.1 0 0 0 0 0 0 0 0 0 0 0 0 0 0 0 0 0 0 0 0 0 0 0 0 0 0 0 0 0 0 0 0 0 0 0 0 0 0 0 0 0 0 0 0 0 0 0 0 0 0 0 0 0 0 0 0 0 0 0 0 0 0 0 0 0 0 0 0 0 0 0 0 0 0 0 0 0 0 0 0 0 0 0 0 0 0 0 0 0 0 0 0 0 0 0 0 0 0 0 0 0 0 0 0 0 0.1 0 0.1 0 0 0 0 0 0 0 0 0 0 0 0 0 0 0 0 0 0 0 0 0 0 0 0 0 0 0 0 0 0 0 0 0 0 0 0 0 0 0 0 0 0 0 0 0 0 0 0 0 0 0 0 0 0 0 0 0 0 0 0 0 0 0 0 0 0 0 0 0 0 0 0 0 0 0 0 0 0 0 0 0 0 0 0 0 0 0 0 0 0 0 0 0 0 0 0 0 0 0 0 0 0 0 0 0 0 0 0.1 0 0 0 0 0 0 0 0 0 0 0 0 0 0 0 0 0 0 0 0 0 0 0 0 0 0 0 0 0 0 0 0 0 0 0 0 0 0 0 0 0 0 0 0 0 0 0 0 0 0 0 0 0 0 0 0 0 0 0 0 0 0 0 0 0 0 0 0 0 0 0 0 0 0 0 0 0 0 0 0 0 0 0 0 0 0 0 0 0 0 0 0 0 0 0 0 0 0 0 0 0 0 0 0 0 0 0 0 0 0 0 0 0 0.1 0 0.1 0 0 0 0 0 0 0 0 0 0 0 0 0 0 0 0 0 0 0 0 0 0 0 0 0 0 0 0 0 0 0 0 0 0 0 0 0 0 0 0 0 0 0 0 0 0 0 0 0 0 0 0 0 0 0 0 0 0 0 0 0 0 0 0 0 0 0 0 0 0 0 0 0 0 0 0 0 0 0 0 0 0 0 0 0 0 0 0 0 0 0 0 0 0 0 0 0 0 0 0 0 0 0 0 0 0 0 0 0 0 0 0 0 0 0 0 0 0 0 0 0 0 0 0 0 0 0 0 0 0 0 0 0 0 0 0 0 0 0 0 0 0 0 0.1 0 0 0 0 0 0 0 0 0 0 0 0 0 0 0 0 0 0 0 0 0 0 0 0 0 0 0 0 0 0 0 0 0 0 0 0 0 0 0 0 0 0 0 0 0 0 0 0 0 0 0 0 0 0 0 0 0 0 0 0 0 0 0 0 0 0 0 0 0 0 0 0 0 0 0 0 0 0 0 0 0 0 0 0 0 0 0 0 0 0 0 0 0 0 0 0 0 0 0 0 0 0 0 0 0 0 0 0 0 0 0 0 0 0 0 0 0 0 0 0.1 0 0 0 0 0 0 0 0 0 0 0 0 0 0 0 0 0 0 0 0 0 0 0 0 0 0 0 0 0 0 0 0 0 0 0 0 0 0 0 0 0 0 0 0 0 0 0 0 0 0 0 0 0 0 0 0 0 0 0 0 0 0 0 0 0 0 0 0 0 0 0 0 0 0 0 0 0 0 0 0 0 0 0 0 0 0 0 0 0 0 0 0 0 0 0 0 0 0 0 0 0 0 0 0 0 0 0 0 0 0 0 0 0 0.5 0 1-0.1 0.1 0 0.1 0l1.9 1.9q-0.4 0.1-0.8 0.2-1.2 0.3-2.4 0.3zm-9.3-8.8l-2.9-2.8q0-0.3 0-0.6 0-1.2 0.2-2.4 0.1-0.5 0.2-0.9l2 2q0 0 0 0-0.1 0.6-0.1 1.3 0 0 0 0 0 0 0 0 0 0 0 0 0 0 0 0 0 0 0 0 0 0 0 0 0 0 0 0 0 0 0 0 0 0 0 0 0 0 0 0 0 0 0 0 0 0 0 0 0 0 0 0 0 0 0 0 0 0 0 0 0 0 0 0 0 0 0 0 0 0 0 0 0 0 0 0 0 0 0 0 0 0 0 0 0 0 0 0 0 0 0 0 0 0 0 0 0 0 0 0 0 0.1 0 0.1 0 0 0 0 0 0 0 0 0 0 0 0 0 0 0 0 0 0 0 0 0 0 0 0 0 0 0 0 0 0 0 0 0 0 0 0 0 0 0 0 0 0 0 0 0 0 0 0 0 0 0 0 0 0 0 0 0 0 0 0 0 0 0 0 0 0 0 0 0 0 0 0 0 0 0 0 0 0 0 0 0 0 0 0 0 0 0 0 0 0 0 0 0 0 0 0 0 0 0 0 0 0 0 0 0 0 0 0 0 0 0 0 0 0 0 0 0 0 0 0 0 0 0 0 0 0 0 0 0 0 0 0 0 0 0 0 0 0 0 0 0 0 0 0 0 0 0 0 0 0 0 0 0 0 0 0.1 0 0 0 0 0 0 0 0 0 0 0 0 0 0 0 0 0 0 0 0 0 0 0 0 0 0 0 0 0 0 0 0 0 0 0 0 0 0 0 0 0 0 0 0 0 0 0 0 0 0 0 0 0 0 0 0 0 0 0 0 0 0 0 0 0 0 0 0 0 0 0 0 0 0 0 0 0 0 0 0 0 0 0 0 0 0 0 0 0 0 0 0 0 0 0 0 0 0 0 0 0 0 0 0 0 0 0 0 0 0 0 0 0 0 0 0 0 0 0 0 0 0 0 0 0 0 0 0 0 0 0 0 0 0 0 0 0 0 0 0 0 0 0 0 0 0 0 0.1 0 0 0 0 0 0 0 0 0 0 0 0 0 0 0 0 0 0 0 0 0 0 0 0 0 0 0 0 0 0 0 0 0 0 0 0 0 0 0 0 0 0 0 0 0 0 0 0 0 0 0 0 0 0 0 0 0 0 0 0 0 0 0 0 0 0 0 0 0 0 0 0 0 0 0 0 0 0 0 0 0 0 0 0 0 0 0 0 0 0 0 0 0 0 0 0 0 0 0 0 0 0 0 0 0 0 0 0 0 0 0 0 0 0 0 0 0 0 0 0 0 0 0 0 0 0 0 0 0 0 0 0 0 0 0 0 0 0 0 0 0 0 0 0 0 0 0 0 0 0 0 0 0 0 0 0 0 0 0 0 0 0 0 0 0 0 0 0 0 0 0 0 0 0 0 0.1 0 0 0 0 0 0 0 0 0 0 0 0 0 0 0 0 0 0 0 0 0 0 0 0 0 0 0 0 0 0 0 0 0 0 0 0 0 1.3 0.4 2.6 0 0 0 0 0 0 0 0 0 0 0 0 0 0 0 0 0 0 0 0 0 0 0 0 0 0 0 0 0 0 0 0 0 0 0 0 0.1 0.2 0.2 0.4z"/>
			<path id="Layer" class="s6" d="m3.2 15.9l-0.3-0.4q-0.6-1.4-0.6-3 0 0 0 0 0 0 0 0 0 0 0 0 0 0 0 0 0 0 0 0 0 0 0 0 0 0 0 0 0 0 0 0 0-0.1 0-0.1 0 0 0 0 0 0 0 0 0 0 0 0 0 0 0 0 0 0 0 0 0 0 0 0 0 0 0 0 0 0 0 0 0 0 0 0 0 0 0 0 0 0 0 0 0 0 0 0 0 0 0 0 0 0 0 0 0 0 0 0 0 0 0 0 0 0 0 0 0 0 0 0 0 0 0 0 0 0 0 0 0 0 0 0 0 0 0 0 0 0 0 0 0 0 0 0 0 0 0 0 0 0 0 0 0 0 0 0 0 0 0 0 0 0 0 0 0 0 0 0 0 0 0 0 0 0 0 0 0 0 0 0 0-0.1 0-0.1 0 0 0 0 0 0 0 0 0 0 0 0 0 0 0 0 0 0 0 0 0 0 0 0 0 0 0 0 0 0 0 0 0 0 0 0 0 0 0 0 0 0 0 0 0 0 0 0 0 0 0 0 0 0 0 0 0 0 0 0 0 0 0 0 0 0 0 0 0 0 0 0 0 0 0 0 0 0 0 0 0 0 0 0 0 0 0 0 0 0 0 0 0 0 0 0 0 0 0 0 0 0 0 0 0 0 0 0 0 0 0 0 0 0 0 0 0 0 0 0 0 0 0 0 0 0 0 0 0 0 0 0 0 0 0 0 0-0.1 0-0.1 0 0 0 0 0 0 0 0 0 0 0 0 0 0 0 0 0 0 0 0 0 0 0 0 0 0 0 0 0 0 0 0 0 0 0 0 0 0 0 0 0 0 0 0 0 0 0 0 0 0 0 0 0 0 0 0 0 0 0 0 0 0 0 0 0 0 0 0 0 0 0 0 0 0 0 0 0 0 0 0 0 0 0 0 0 0 0 0 0 0 0 0 0 0 0 0 0 0 0 0 0 0 0 0 0 0 0 0 0 0 0 0 0 0 0-0.1 0 0 0 0 0 0 0 0 0 0 0 0 0 0 0 0 0 0 0 0 0 0 0 0 0 0 0 0 0 0 0 0 0 0 0 0 0 0 0 0 0 0 0 0 0 0 0 0 0 0 0 0 0 0 0 0 0 0 0 0 0 0 0 0 0 0 0 0 0 0 0 0 0 0 0 0 0 0 0 0 0 0 0 0 0 0 0 0 0 0 0 0 0 0 0 0 0 0 0 0 0-0.7 0.1-1.3l0.3 0.3q-0.1 0.7-0.1 1.4 0 1.8 0.6 3.4z"/>
			<path id="Layer" class="s4" d="m7.7 18.1h2l0.1 0.1h-2.1z"/>
			<path id="Layer" class="s4" d="m6.9 15.2l0.8 0.9v2h-0.8z"/>
			<path id="Layer" class="s4" d="m7.7 16.1l2 2h-2z"/>
			<path id="Layer" class="s3" d="m8.8 16.2l1.9-2z"/>
			<path id="Layer" class="s6" d="m22.1 19.2v-0.1q0 0 0.1-0.1 0.7-1 1.1-2.1 0.1-0.3 0.2-0.6l0.1 0.1q-0.1 0.2-0.2 0.5-0.5 1-1.2 2 0 0.1-0.1 0.3z"/>
			<path id="Layer" class="s4" d="m20.4 17.5l-2.1-2.1v-4.3l3.4 3.4q-0.4 1.6-1.3 3z"/>
			<path id="Layer" class="s5" d="m22.1 19.1q0 0 0.1-0.1 0.7-1 1.1-2.1 0.1-0.3 0.2-0.6-0.1 0.3-0.2 0.6-0.4 1.1-1.1 2.1-0.1 0.1-0.1 0.1z"/>
			<path id="Layer" class="s5" d="m22.1 19.1l-1.7-1.6q0.9-1.4 1.3-3l1.8 1.8q-0.1 0.3-0.2 0.6-0.4 1.1-1.1 2.1-0.1 0.1-0.1 0.1z"/>
			<path id="Layer" class="s7" d="m5.1 2.2q0.1-0.1 0.3-0.2 0.9-0.6 2-1.1 0.3-0.1 0.5-0.2-0.2 0.1-0.5 0.3-1.1 0.4-2.1 1.1-0.1 0-0.2 0.1z"/>
			<path id="Layer" fill-rule="evenodd" class="s4" d="m14.1 6.9h-4.3l-2.6-2.7q1.3-0.8 3-1.2zm-7.3-3.1q0 0 0 0 0 0 0 0 0 0 0 0 0 0 0 0 0 0 0 0 0.4-0.3 0.8-0.5-0.4 0.3-0.8 0.5zm0.8-0.5q0 0 0 0 0 0 0 0zm0 0q0 0 0 0 0 0 0 0zm0 0q0 0 0 0 0 0 0 0zm0 0q0.1 0 0.1 0 0 0-0.1 0zm0.1 0q0 0 0 0 0 0 0 0zm0 0q0 0 0 0 0 0 0 0zm0 0q0 0 0 0 0 0 0 0zm0 0q0 0 0 0 0 0 0 0zm0 0q0 0 0 0 0 0 0 0zm0 0q0 0 0 0 0 0 0 0zm0 0q0 0 0 0 0 0 0 0zm0 0q0 0 0 0 0 0 0 0zm0 0q0 0 0 0 0 0 0 0zm0 0q0 0 0 0 0 0 0 0zm0 0q0 0 0 0 0 0 0 0zm0 0q0 0 0 0 0 0 0 0zm0 0q0 0 0 0 0 0 0 0zm0 0q0 0 0 0 0 0 0 0zm0 0q0 0 0 0 0 0 0 0zm0 0zm0.1 0q0 0 0 0 0 0 0 0zm0 0q0 0 0 0 0 0 0 0zm0 0q0 0 0 0 0 0 0 0zm0 0q0 0 0 0zm0-0.1zm0 0zm0 0z"/>
			<path id="Layer" class="s5" d="m6.8 3.9q0 0 0 0 0 0 0 0zm0 0q0 0 0 0 0 0 0 0zm0 0zm-1.7-1.7q0.1-0.1 0.2-0.1 1-0.7 2.1-1.1 0.3-0.2 0.5-0.3-0.2 0.1-0.5 0.3-1.1 0.4-2.1 1.1-0.1 0-0.2 0.1z"/>
			<path id="Layer" class="s5" d="m6.8 3.9l-1.7-1.7q0.1-0.1 0.2-0.1 1-0.7 2.1-1.1 0.3-0.2 0.5-0.3l1.9 1.9q-1 0.2-1.9 0.7 0 0 0 0-0.1 0-0.1 0 0 0 0 0 0 0 0 0 0 0 0 0 0 0 0 0 0 0 0 0 0 0 0 0 0 0 0 0 0 0 0 0 0 0 0 0 0 0 0 0 0 0 0 0 0 0 0 0 0 0 0 0 0 0 0 0 0 0 0 0 0 0 0 0 0 0 0 0 0 0 0 0 0 0 0 0 0 0 0 0 0 0 0 0 0 0 0 0 0 0 0 0-0.1 0-0.1 0 0 0 0 0 0 0 0 0 0 0 0 0 0 0 0 0 0 0 0 0 0 0 0 0 0 0 0 0 0 0 0 0 0 0 0 0 0 0 0 0 0 0 0 0 0 0 0 0.1 0 0 0 0 0 0 0 0 0 0 0 0 0 0 0 0 0 0 0 0 0 0 0 0 0 0 0 0 0 0 0 0 0 0 0 0 0 0 0 0 0 0 0 0-0.5 0.2-0.9 0.5 0 0 0 0 0 0 0 0 0 0 0 0 0 0 0 0 0 0 0 0z"/>
			<path id="Layer" class="s6" d="m7.2 4.2l-0.4-0.3q0.4-0.3 0.9-0.5 0 0 0 0 0 0 0 0 0 0 0 0 0 0 0 0 0 0 0 0 0 0 0 0 0 0 0 0 0 0 0 0 0 0 0 0 0 0 0 0 0 0 0 0 0-0.1 0-0.1 0 0 0 0 0 0 0 0 0 0 0 0 0 0 0 0 0 0 0 0 0 0 0 0 0 0 0 0 0 0 0 0 0 0 0 0 0 0 0 0 0 0 0 0 0 0 0.1 0 0 0 0 0 0 0 0 0 0 0 0 0 0 0 0 0 0 0 0 0 0 0 0 0 0 0 0 0 0 0 0 0 0 0 0 0 0 0 0 0 0 0 0 0 0 0 0 0 0 0 0 0 0 0 0 0 0 0 0 0 0 0 0 0 0 0 0 0 0 0 0 0 0 0 0 0 0 0 0 0 0 0 0 0 0 0 0 0 0 0 0 0 0 0 0 0 0 0 0.1 0 0 0 0 0 0.9-0.5 1.9-0.7l0.4 0.4q-1.7 0.4-3 1.2z"/>
			<path id="Layer" class="s4" d="m18.3 11.1v4.3l-0.8-0.9v-4.3z"/>
			<path id="Layer" class="s6" d="m17.5 14.5v-0.4h0.8q-0.1 0.5-0.3 1zm0-4.3l0.9 0.8h-0.9z"/>
			<path id="Layer" class="s4" d="m9.8 6.9h4.3l0.1 0.1h-4.3z"/>
			<path id="Layer" class="s3" d="m12.2 6.9q0.6 0 1.2 0.1h-2.3q0.5-0.1 1.1-0.1z"/>
			<path id="Layer" class="s4" d="m9.9 7h4.3l3.3 3.2v4.3z"/>
			<path id="Layer" class="s6" d="m13.1 7q0.6 0 1.2 0.1l3.2 3.1v0.9h-2q-0.3-0.8-0.9-1.2-0.7-0.5-1.6-0.4-0.3 0-0.6 0l-1.9-1.9q1.1-0.6 2.5-0.6zm4.3 7.5l-0.4-0.4h0.4z"/>
			<path id="Layer" class="s3" d="m14.5 7.3l2.6 2.6q0.2 0.5 0.4 1.1h-2.9q-0.3-0.8-0.9-1.2-0.6-0.4-1.4-0.4l-2.1-2.2q0.4-0.1 0.9-0.2h2.2q0.7 0.1 1.2 0.3zm2.4 6.7h0.6q-0.1 0.2-0.2 0.4z"/>
			<path id="Layer" class="s3" d="m13.1 7q0.1 0 0.3 0 0.6 0.1 1.1 0.3l2.6 2.6q0.2 0.5 0.4 1.1h-2q-0.3-0.7-0.9-1.1-0.7-0.5-1.6-0.4 0 0-0.1 0-0.3-0.1-0.6-0.1l-1.8-1.8q1.1-0.6 2.5-0.6zm4.2 7.4l-0.3-0.3h0.4q0 0.2-0.1 0.3z"/>
			<path id="Layer" class="s6" d="m23.9 15.4h-0.1q0.2-0.4 0.2-0.8 0.1-0.5 0.2-1 0 0.5-0.1 1-0.1 0.4-0.2 0.8z"/>
			<path id="Layer" class="s4" d="m21.9 13.4l-3.6-3.5v-2.2l3.6 3.6q0 0 0 0 0 0 0 0 0 0.1 0 0.1 0 0 0 0 0 0 0 0 0 0 0 0 0 0 0 0 0 0 0 0 0 0 0 0 0 0 0 0 0 0 0 0 0 0 0 0 0 0 0 0 0 0 0 0 0 0 0 0 0 0 0 0 0 0 0 0 0 0 0 0 0 0 0 0 0 0.1 0 0.1 0 0 0 0 0 0 0 0 0 0 0 0 0 0 0 0 0 0 0 0 0 0 0 0 0 0 0 0 0 0 0 0 0 0 0 0 0 0 0 0 0 0 0 0 0 0 0 0 0 0 0 0 0 0 0 0 0 0 0 0 0 0 0 0 0 0 0 0.1 0 0 0 0 0 0 0 0 0 0 0 0 0 0 0 0 0 0 0 0 0.1 0 0.1 0 0 0 0 0 0 0 0 0 0 0 0 0 0 0 0 0 0 0 0 0 0 0 0 0 0 0 0 0 0 0 0 0 0 0 0 0 0 0 0 0 0 0 0 0 0 0 0 0 0 0 0 0 0 0 0 0 0 0 0 0.1 0 0 0 0 0 0 0 0 0 0 0 0 0 0 0 0 0 0 0 0 0 0 0 0 0 0 0 0 0 0 0 0 0 0 0 0 0 0 0 0 0 0 0 0 0 0 0 0 0 0 0 0 0 0 0 0 0 0 0 0 0 0 0 0 0 0 0 0 0 0 0 0 0 0 0 0 0 0 0 0 0 0 0 0 0 0.1 0 0.1 0 0 0 0 0 0 0 0 0 0 0 0 0 0 0 0 0 0 0 0 0 0 0 0 0 0 0 0 0 0 0 0 0 0 0 0 0 0 0 0 0 0 0 0 0 0 0 0 0 0 0 0 0 0 0 0 0 0 0 0 0 0 0 0 0 0 0 0 0 0 0 0 0 0 0 0 0 0 0 0 0 0 0 0 0 0 0 0 0 0 0 0 0 0 0 0 0 0.1 0 0.1 0 0 0 0 0 0 0 0 0 0 0 0 0 0 0 0 0 0 0 0 0 0 0 0 0 0 0 0 0 0 0 0 0 0 0 0 0 0 0 0 0 0 0 0 0 0 0 0 0 0 0 0 0 0 0 0 0 0 0 0 0 0 0 0 0 0 0 0 0 0 0 0 0 0 0 0 0 0 0 0 0 0 0 0 0 0 0 0 0 0.1 0 0.1 0 0 0 0 0 0 0 0 0 0 0 0 0 0 0 0 0 0 0 0 0 0 0 0 0 0 0 0 0 0 0 0 0 0 0 0 0 0 0 0 0 0 0 0 0 0 0 0 0 0 0 0 0 0 0 0 0 0 0 0 0 0 0 0 0 0 0 0 0 0 0 0 0 0 0 0 0 0 0 0 0 0 0 0 0 0 0 0 0 0 0 0 0 0 0 0 0 0 0 0 0 0.1 0 0.1 0 0 0 0 0 0 0 0 0 0 0 0 0 0 0 0 0 0 0 0 0 0 0 0 0 0 0 0 0 0 0 0 0 0 0 0 0 0 0 0 0 0 0 0 0 0 0 0 0 0 0 0 0 0 0 0 0 0 0 0 0 0 0 0 0 0 0 0 0 0 0 0 0 0 0 0 0 0 0 0 0 0 0 0 0 0 0 0 0 0 0 0 0 0 0 0 0 0.1 0 0.1 0 0 0 0 0 0 0 0 0 0 0 0 0 0 0 0 0 0 0 0 0 0 0 0 0 0 0 0 0 0 0 0 0 0 0 0 0 0 0 0 0 0 0 0 0 0 0 0 0 0 0 0 0 0 0 0 0 0 0 0 0 0 0 0 0 0 0 0 0 0 0 0 0 0 0 0 0 0 0 0 0 0 0 0 0 0 0 0 0 0 0 0.1 0 0 0 0 0 0 0 0 0 0 0 0 0 0 0 0 0 0 0 0 0 0 0 0 0 0 0 0 0 0 0 0 0 0 0 0 0 0 0 0 0 0 0 0 0 0 0 0 0 0 0 0 0 0 0 0 0 0 0 0 0 0 0 0 0 0 0 0 0 0 0 0 0 0 0 0 0 0 0 0 0 0 0 0 0 0 0 0 0 0 0 0.1 0 0 0 0 0 0 0 0 0 0 0 0 0 0 0 0 0 0 0 0 0 0 0 0 0 0 0 0 0 0 0 0 0 0 0 0 0 0 0 0 0 0 0 0 0 0 0 0 0 0 0 0 0 0 0 0 0 0 0 0 0 0 0 0 0 0 0 0 0 0 0 0 0 0 0 0 0 0.1 0 0.1 0 0 0 0 0 0 0 0 0 0 0 0 0 0 0 0 0 0 0 0 0 0 0 0 0 0 0 0 0 0 0 0 0 0 0 0 0 0 0 0 0 0.1 0 0.1 0 0 0 0 0 0 0 0 0 0 0 0 0 0 0 0-0.1 0.4-0.1 0.8z"/>
			<path id="Layer" fill-rule="evenodd" class="s5" d="m23.8 15.4q0.2-0.4 0.2-0.8 0.1-0.5 0.2-1-0.1 0.5-0.2 1 0 0.4-0.2 0.8zm-1.8-2.8zm0 0zm0 0zm0 0zm0 0zm0-0.1zm0 0zm0 0zm0 0zm0 0q0 0 0 0zm0 0zm0 0zm0 0zm0 0q0 0 0 0zm0-0.1q0 0 0 0zm0 0zm0 0zm0 0q0 0 0 0zm0 0q0 0 0 0zm0 0q0 0 0 0 0 0 0 0zm0 0q0 0 0 0zm0 0zm0 0zm0 0q0 0 0 0 0 0 0 0zm0 0q0 0 0 0 0 0 0 0zm0-0.1q0 0 0 0 0 0 0 0zm0 0q0 0 0 0zm0 0zm0 0q0 0 0 0zm0 0q0 0 0 0 0 0 0 0zm0 0q0 0 0 0 0 0 0 0zm0 0q0 0 0 0 0 0 0 0zm0 0q0 0 0 0zm0 0zm0 0q0 0 0 0zm0 0q0 0 0 0 0 0 0 0zm0 0q0 0 0 0 0 0 0 0zm0 0q0 0 0 0 0 0 0 0zm0-0.1q0 0 0 0zm0 0zm0 0q0 0 0 0 0 0 0 0zm0 0q0 0 0 0 0 0 0 0zm0 0q0 0 0 0 0 0 0 0zm0 0q0 0 0 0 0 0 0 0zm0 0q0 0 0 0 0 0 0 0zm0 0zm0 0q0 0 0 0 0 0 0 0zm0 0q0 0 0 0 0 0 0 0zm0 0q0 0 0 0 0 0 0 0zm0 0q0 0 0 0 0 0 0 0zm0 0q0 0 0 0zm0-0.1zm0 0q0 0 0 0 0 0 0 0zm0 0q0 0 0 0zm0 0q0 0 0 0 0 0 0 0zm0 0q0 0 0 0 0 0 0 0zm0 0q0 0 0 0 0 0 0 0zm0 0q0 0 0 0 0 0 0 0zm0 0q0 0 0 0 0 0 0 0zm0 0q0 0 0 0 0 0 0 0zm0 0q0 0 0 0 0 0 0 0zm0 0q0 0 0 0 0 0 0 0zm0 0q0 0 0 0 0 0 0 0zm0 0q0 0 0 0 0 0 0 0zm0-0.1q0 0 0 0 0 0 0 0zm0 0q0 0 0 0 0 0 0 0zm0 0q0 0 0 0 0 0 0 0zm0 0q0 0 0 0 0 0 0 0zm0 0q0 0 0 0 0 0 0 0zm0 0q0 0 0 0 0 0 0 0zm0 0q0 0 0 0 0 0 0 0zm0 0q0 0 0 0 0 0 0 0zm0 0q0 0 0 0 0 0 0 0zm0 0q0 0 0 0 0 0 0 0zm0 0q0 0 0 0 0 0 0 0zm0 0q0 0 0 0 0 0 0 0zm0 0q0 0 0 0 0 0 0 0zm0-0.1q0 0 0 0 0 0 0 0zm0 0q0 0 0 0 0 0 0 0zm0 0q0 0 0 0 0 0 0 0zm0 0q0 0 0 0 0 0 0 0zm0 0q0 0 0 0zm0 0q0 0 0 0 0 0 0 0zm0 0q0 0 0 0 0 0 0 0zm0 0q0 0 0 0 0 0 0 0zm0 0q0 0 0 0 0 0 0 0zm0 0q0 0 0 0 0 0 0 0zm0 0q0 0 0 0 0 0 0 0zm0 0q0 0 0 0 0 0 0 0zm0-0.1q0 0 0 0 0 0 0 0zm0 0q0 0 0 0 0 0 0 0zm0 0q0 0 0 0 0 0 0 0zm0 0zm0 0q0 0 0 0zm0 0q0 0 0 0 0 0 0 0zm0 0q0 0 0 0 0 0 0 0zm0 0q0 0 0 0 0 0 0 0zm0 0q0 0 0 0 0 0 0 0zm0 0q0 0 0 0 0 0 0 0zm0 0q0 0 0 0 0 0 0 0zm0 0q0 0 0 0 0 0 0 0zm0 0q0 0 0 0 0 0 0 0zm0-0.1q0 0 0 0 0 0 0 0zm0 0q0 0 0 0 0 0 0 0zm0 0q0 0 0 0zm0 0q0 0 0 0 0 0 0 0zm0 0zm0 0q0 0 0 0 0 0 0 0zm0 0q0 0 0 0 0 0 0 0zm0 0q0 0 0 0 0 0 0 0zm0 0q0 0 0 0 0 0 0 0zm0 0q0 0 0 0 0 0 0 0zm0 0q0 0 0 0 0 0 0 0zm0 0q0 0 0 0zm0-0.1q0 0 0 0 0 0 0 0zm0 0q0 0 0 0 0 0 0 0zm0 0q0 0 0 0 0 0 0 0zm0 0q0 0 0 0zm0 0q0 0 0 0 0 0 0 0zm0 0zm0 0zm0 0zm0 0q0 0 0 0zm0 0q0 0 0 0zm0 0q0 0 0 0 0 0 0 0zm0 0q0 0 0 0 0 0 0 0zm-0.1 0q0 0 0 0 0 0 0 0zm0-0.1q0 0 0 0 0 0 0 0zm0 0q0 0 0 0 0 0 0 0zm0 0q0 0 0 0 0 0 0 0zm0 0q0 0 0 0 0 0 0 0zm0 0q0 0 0 0zm0 0zm0 0q0 0 0 0zm0 0q0 0 0 0zm0 0zm0 0q0 0 0 0zm0 0q0 0 0 0zm0-0.1q0 0 0 0 0 0 0 0zm0 0q0 0 0 0 0 0 0 0zm0 0q0 0 0 0 0 0 0 0zm0 0q0 0 0 0 0 0 0 0zm0 0q0 0 0 0 0 0 0 0zm0 0q0 0 0 0 0 0 0 0zm0 0q0 0 0 0zm0 0zm0 0zm0 0q0 0 0 0zm0 0q0 0 0 0zm0-0.1q0 0 0 0zm0 0q0 0 0 0 0 0 0 0zm0 0q0 0 0 0 0 0 0 0z"/>
			<path id="Layer" class="s5" d="m23.8 15.4l-1.9-2q0-0.4 0.1-0.8 0 0 0 0 0 0 0 0 0 0 0 0 0 0 0 0 0 0 0-0.1 0 0 0 0 0 0 0 0 0 0 0 0 0 0 0 0 0 0 0 0 0 0 0 0 0 0 0 0 0 0 0 0 0 0 0-0.1 0 0 0 0 0 0 0 0 0 0 0 0 0 0 0 0 0 0 0 0 0 0 0 0 0 0 0 0 0 0 0 0 0 0 0 0 0 0 0 0 0 0 0 0 0 0 0 0 0 0 0 0 0 0 0 0 0 0 0 0 0-0.1 0-0.1 0 0 0 0 0 0 0 0 0 0 0 0 0 0 0 0 0 0 0 0 0 0 0 0 0 0 0 0 0 0 0 0 0 0 0 0 0 0 0 0 0 0 0 0 0 0 0 0 0 0 0 0 0 0 0 0 0 0 0 0 0 0 0 0 0 0 0 0 0 0 0 0 0 0 0 0 0 0 0 0 0 0 0 0 0-0.1 0-0.1 0 0 0 0 0 0 0 0 0 0 0 0 0 0 0 0 0 0 0 0 0 0 0 0 0 0 0 0 0 0 0 0 0 0 0 0 0 0 0 0 0 0 0 0 0 0 0 0 0 0 0 0 0 0 0 0 0 0 0 0 0 0 0 0 0 0 0 0 0 0 0 0 0 0 0 0 0 0 0 0 0 0 0 0 0 0 0-0.1 0 0 0 0 0 0 0 0 0 0 0 0 0 0 0 0 0 0 0 0 0 0 0 0 0 0 0 0 0 0 0 0 0 0 0 0 0 0 0 0 0 0 0 0 0 0 0 0 0 0 0 0 0 0 0 0 0 0 0 0 0 0 0 0 0 0 0 0 0 0 0 0 0 0 0 0 0 0 0 0 0 0 0 0 0 0 0 0 0 0 0 0 0 0 0 0 0 0 0 0 0 0 0-0.1 0 0 0 0 0 0 0 0 0 0 0 0 0 0 0 0 0 0 0 0 0 0 0 0 0 0 0 0 0 0 0 0 0 0 0 0 0 0 0 0 0 0 0 0 0 0 0 0 0 0 0 0 0 0 0 0 0 0 0 0 0 0 0 0 0 0 0 0 0 0 0 0 0 0 0 0 0 0 0 0 0 0 0 0 0 0 0 0 0 0 0 0 0 0 0 0 0 0 0 0 0 0 0-0.1 0 0 0 0 0 0 0 0 0 0 0 0 0 0 0 0 0 0 0 0 0 0 0 0 0 0 0 0 0 0 0 0 0 0 0 0 0 0 0 0 0 0 0 0 0 0 0 0 0 0 0 0 0 0 0 0 0 0 0 0 0 0 0 0 0 0 0 0 0 0 0 0 0 0 0 0 0 0 0 0 0 0 0 0 0 0 0 0 0 0 0 0 0 0 0-0.1 0 0 0 0 0 0 0 0 0 0 0 0 0 0 0 0 0 0 0 0 0 0 0 0 0 0 0 0 0 0 0 0 0 0 0 0 0 0 0 0 0 0 0 0 0 0 0 0 0 0 0 0 0 0 0 0 0 0 0 0 0 0 0 0 0 0 0 0 0 0 0 0 0 0 0 0 0 0 0 0 0 0 0 0 0 0 0 0 0 0 0 0 0 0 0 0 0 0 0 0 0 0 0-0.1 0 0 0 0 0 0 0 0 0 0 0 0 0 0 0 0 0 0 0 0 0 0 0 0 0 0 0 0 0 0 0 0 0 0 0 0 0 0 0 0 0 0 0 0 0 0 0 0 0 0 0 0 0 0 0 0 0 0 0 0 0 0 0 0 0 0 0 0 0 0 0 0 0 0 0 0 0 0 0 0 0 0 0 0 0 0 0 0 0 0 0 0 0-0.1 0-0.1 0 0 0 0 0 0 0 0 0 0 0 0 0 0 0 0 0 0 0 0 0 0 0 0 0 0 0 0 0 0 0 0 0 0 0 0 0 0 0 0 0 0 0 0 0 0 0 0 0 0 0 0 0 0 0 0 0 0 0 0 0 0-0.1 0 0 0 0 0 0 0 0 0 0 0 0 0 0 0 0 0 0 0 0 0 0-0.1 0-0.1 0 0 0 0 0 0 0 0 0 0 0 0 0 0 0 0 0 0 0 0 0 0 0 0 0 0 0 0 0 0 0 0 0 0 0 0 0 0 0 0 0 0 0 0 0 0 0 0 0 0 0 0 0 0 0 0 0 0 0 0 0 0 0 0 0 0 0 0 0 0 0-0.1 0 0 0 0 0 0 0 0 0 0 0 0 0 0 0 0 0 0 0 0 0 0 0 0 0 0 0 0 0 0 0 0 0 0 0 0 0 0 0 0 0 0 0 0 0 0 0 0 0 0 0 0 0 0 0 0 0 0 0 0 0 0 0 0 0 0 0 0 0 0 0 0 0 0 0-0.1 0 0 0 0 0 0 0 0l0.1 0.1 2.2 2.2q-0.1 0.5-0.2 1 0 0.4-0.2 0.8z"/>
			<path id="Layer" class="s7" d="m8.9 0.4q0.4-0.1 0.8-0.2 0.5-0.1 0.9-0.2l0.1 0.1q-0.5 0-1 0.1-0.4 0.1-0.8 0.2z"/>
			<path id="Layer" fill-rule="evenodd" class="s4" d="m17.6 7h-0.1v-0.1h-2.1l-4.2-4.1q0.6-0.1 1.3-0.1 0.4 0 0.8 0zm-5.9-4.7zm0 0zm0.1 0zm0 0q0 0 0 0zm0 0q0 0 0 0zm0 0zm0 0zm0 0q0 0 0 0 0 0 0 0zm0 0q0 0 0 0zm0 0zm0 0zm0 0q0 0 0 0 0 0 0 0zm0.1 0q0 0 0 0 0 0 0 0 0 0 0 0 0 0 0 0zm0 0q0 0 0 0zm0 0q0 0 0 0 0 0 0 0zm0 0q0 0 0 0zm0 0q0 0 0 0 0 0 0 0zm0 0q0 0 0 0 0 0 0 0 0 0 0 0zm0 0zm0 0q0 0 0 0 0 0 0 0zm0 0q0 0 0 0zm0 0q0 0 0 0 0 0 0 0 0 0 0 0zm0 0q0 0 0 0 0 0 0 0 0 0 0 0zm0 0q0.1 0 0.1 0 0 0-0.1 0zm0.1 0q0 0 0 0 0 0 0 0zm0 0zm0 0q0 0 0 0 0 0 0 0 0 0 0 0zm0 0q0 0 0 0 0 0 0 0zm0 0q0 0 0 0 0 0 0 0zm0 0q0 0 0 0 0 0 0 0zm0 0zm0 0q0 0 0 0zm0 0q0 0 0 0 0 0 0 0zm0 0q0 0 0 0 0 0 0 0zm0 0q0 0 0 0 0 0 0 0zm0 0q0 0 0 0 0 0 0 0zm0.1 0zm0 0q0 0 0 0 0 0 0 0zm0 0q0 0 0 0 0 0 0 0zm0 0q0 0 0 0 0 0 0 0zm0 0q0 0 0 0 0 0 0 0zm0 0q0 0 0 0 0 0 0 0zm0 0zm0 0q0 0 0 0 0 0 0 0zm0 0q0 0 0 0 0 0 0 0zm0 0q0 0 0 0 0 0 0 0z"/>
			<path id="Layer" fill-rule="evenodd" class="s5" d="m8.9 0.4q0.4-0.1 0.8-0.2 0.5-0.1 1-0.1-0.5 0-1 0.1-0.4 0.1-0.8 0.2zm2.8 1.9zm0 0zm0.1 0q0 0 0 0zm0 0zm0 0zm0 0zm0 0q0 0 0 0zm0 0q0 0 0 0zm0 0zm0 0q0 0 0 0zm0.1 0zm0 0q0 0 0 0zm0 0q0 0 0 0zm0 0zm0 0q0 0 0 0zm0 0zm0 0q0 0 0 0zm0 0q0 0 0 0 0 0 0 0zm0 0q0 0 0 0 0 0 0 0zm0 0q0 0 0 0zm0.1 0zm0 0q0 0 0 0 0 0 0 0zm0 0q0 0 0 0 0 0 0 0zm0 0q0 0 0 0zm0 0q0 0 0 0zm0 0zm0 0q0 0 0 0zm0 0q0 0 0 0 0 0 0 0zm0 0q0 0 0 0 0 0 0 0zm0 0q0 0 0 0 0 0 0 0zm0 0q0 0 0 0 0 0 0 0zm0 0zm0 0q0 0 0 0 0 0 0 0zm0 0q0 0 0 0 0 0 0 0zm0.1 0q0 0 0 0 0 0 0 0zm0 0q0 0 0 0zm0 0q0 0 0 0zm0 0zm0 0q0 0 0 0 0 0 0 0zm0 0q0 0 0 0 0 0 0 0zm0 0q0 0 0 0 0 0 0 0zm0 0q0 0 0 0z"/>
			<path id="Layer" class="s5" d="m10.8 2.4l-1.9-2q0.4-0.1 0.8-0.2 0.5-0.1 1-0.1l2.2 2.2q-0.4 0-0.8 0 0 0 0 0 0 0 0 0 0 0 0 0 0 0 0 0 0 0 0 0 0 0 0 0 0 0 0 0 0 0 0 0 0 0 0 0 0 0 0 0 0 0 0 0 0 0-0.1 0 0 0 0 0 0 0 0 0 0 0 0 0 0 0 0 0 0 0 0 0 0 0 0 0 0 0 0 0 0 0 0 0 0 0 0 0 0 0 0 0 0 0 0 0 0 0 0 0 0 0 0 0 0 0 0 0 0 0 0 0 0 0 0 0 0 0 0 0 0 0 0 0 0 0 0 0 0 0 0 0 0 0 0 0 0 0 0 0 0 0 0 0 0 0-0.1 0 0 0 0 0 0 0 0 0 0 0 0 0 0 0 0 0 0 0 0 0 0 0 0 0 0 0 0 0 0 0 0 0 0 0 0 0 0 0 0 0 0 0 0 0 0 0 0 0 0 0 0 0 0 0 0 0 0 0 0 0 0 0 0 0 0 0 0 0 0 0-0.1 0 0 0 0 0 0 0 0 0 0 0 0 0 0 0 0 0 0 0 0 0 0 0 0 0 0 0 0 0 0 0 0 0 0 0 0 0 0 0 0 0 0 0 0 0-0.1 0-0.1 0 0 0 0 0 0 0 0 0 0 0 0 0 0 0 0 0-0.4 0-0.9 0.1z"/>
			<path id="Layer" class="s6" d="m11.2 2.8l-0.4-0.4q0.5-0.1 0.9-0.1 0 0 0 0 0 0 0 0 0 0 0 0 0 0 0 0 0 0 0 0 0 0 0 0 0 0 0.1 0 0 0 0 0 0 0 0 0 0 0 0 0 0 0 0 0 0 0 0 0 0 0 0 0 0 0 0 0 0 0 0 0 0 0 0 0 0 0 0 0 0 0 0 0 0 0 0 0 0 0 0 0 0 0 0 0 0 0 0 0 0.1 0 0.1 0 0 0 0 0 0 0 0 0 0 0 0 0 0 0 0 0 0 0 0 0 0 0 0 0 0 0 0 0 0 0 0 0 0 0 0 0 0 0 0 0 0 0 0 0 0 0 0 0 0 0 0 0 0 0 0 0 0 0 0 0 0 0 0 0 0 0 0 0 0.1 0 0.1 0 0 0 0 0 0 0 0 0 0 0 0 0 0 0 0 0 0 0 0 0 0 0 0 0 0 0 0 0 0 0 0 0 0 0 0 0 0 0 0 0 0 0 0 0 0 0 0 0 0 0 0 0 0 0 0 0 0 0 0 0 0 0 0 0 0 0 0 0 0 0 0 0 0 0 0 0 0 0 0 0 0 0 0 0 0 0 0 0 0 0 0 0 0 0 0 0 0.1 0 0.1 0 0 0 0 0 0 0 0 0 0 0 0 0 0 0 0 0 0 0 0 0 0 0 0 0 0 0 0 0 0 0 0 0 0 0 0 0 0 0 0 0 0 0 0 0 0 0 0 0 0 0 0 0 0 0 0 0 0.4 0 0.8 0l0.4 0.4q-0.4 0-0.8 0-0.7 0-1.3 0.1z"/>
			<path id="Layer" class="s4" d="m17.6 7l0.7 0.7v2.2l-0.8-0.9v-2z"/>
			<path id="Layer" class="s4" d="m15.4 6.9h2.1v0.1h-2.1z"/>
			<path id="Layer" class="s4" d="m15.4 7h2.1v2z"/>
			<path id="Layer" class="s6" d="m17.3 8.8q-0.3-0.4-0.7-0.7z"/>
			<path id="Layer" class="s3" d="m8.8 16.2l1.9-1.9z"/>
		</g>
	</g>
</svg>