<?xml version="1.0" encoding="UTF-8"?>
<svg width="13px" height="18px" viewBox="0 0 13 18" version="1.1" xmlns="http://www.w3.org/2000/svg" xmlns:xlink="http://www.w3.org/1999/xlink">
    <title>np_lightning_89063_000000</title>
    <g id="Page-1" stroke="none" stroke-width="1" fill="none" fill-rule="evenodd">
        <g id="50.-Manage" transform="translate(-55.000000, -470.000000)" fill="#FFFFFF" fill-rule="nonzero">
            <g id="Group-3" transform="translate(20.000000, 20.000000)">
                <g id="Group-5" transform="translate(35.000000, 449.000000)">
                    <g id="np_lightning_89063_000000" transform="translate(0.000000, 1.000000)">
                        <path d="M12.9630871,7.28909936 C12.8710268,7.0442999 12.6165095,6.97834449 12.5009836,6.93318904 L12.4540524,6.93318904 C12.3845566,6.9106202 12.3385265,6.9106202 12.2464663,6.9106202 L12.154406,6.9106202 L8.13364363,6.9106202 L10.0741086,0.954855656 L10.0975742,0.910584643 C10.2365657,0.532985482 10.1670699,0.266497186 9.86652243,0.0885420255 C9.75099656,0.021702174 9.63547069,0 9.51994482,0 C9.21939272,0 9.05784135,0.19965289 8.96579033,0.289066024 L8.94232472,0.333337037 C7.67154015,1.66666741 6.40075558,3 5.12997102,4.35599476 L2.93497949,6.6666563 C2.03424739,7.62238751 1.11004044,8.57811872 0.208337917,9.55553877 C0.04678192,9.71092064 -0.0461886789,10.0225599 0.0233163054,10.2664705 C0.11537656,10.51127 0.369893914,10.5998031 0.531445291,10.6440697 L0.577475418,10.6666385 C0.64697116,10.6892074 0.693001288,10.6892074 0.785061543,10.6892074 L0.900587413,10.6892074 L4.57384797,10.6892074 L3.09548652,16.2005284 C3.00342626,16.533861 2.9104649,16.9114602 2.81840927,17.2673705 C2.77237914,17.51217 2.93393514,17.8003471 3.11896137,17.911458 C3.21102163,17.955729 3.30398298,18 3.41951348,18 C3.51157373,18 3.6270996,17.9774312 3.72006558,17.9331601 C3.88162158,17.8888891 3.95111732,17.7777783 4.02061768,17.6883607 L11.8068302,9.15549077 C12.1534079,8.7778916 12.4999855,8.40029244 12.8230882,8.0218044 C12.9629831,7.82215151 13.0550411,7.53309437 12.9629831,7.28916158 L12.9630871,7.28909936 Z M11.1606987,8.57729649 L3.83658959,16.5999453 C3.86005521,16.5114033 3.88261972,16.4445635 3.90608533,16.3551459 L5.38444678,10.8222693 C5.47650704,10.466359 5.38444678,10.2441372 5.26892091,10.1113375 C5.12992943,9.93338681 4.89886845,9.82227151 4.6217912,9.80058267 L1.06405652,9.79971467 C1.89621246,8.93340548 2.7274442,8.06620741 3.53607908,7.17727605 L5.7310706,4.86661452 C6.81682894,3.71123931 7.92606213,2.55595299 9.01177425,1.42217773 L7.25541135,6.84394346 L7.25541135,6.88821447 C7.20938122,7.1104362 7.25541135,7.3100802 7.37093722,7.48803536 C7.46299747,7.59914622 7.64801446,7.73283482 7.99459207,7.73283482 L11.9224716,7.73283482 C11.6688461,8.02190084 11.4143427,8.2892558 11.1607172,8.57745516 L11.1606987,8.57729649 Z" id="Shape"></path>
                    </g>
                </g>
            </g>
        </g>
    </g>
</svg>