<svg width="60" height="60" xmlns="http://www.w3.org/2000/svg">
    <g fill="none" fill-rule="evenodd">
        <rect fill="#EDFEF9" width="60" height="60" rx="12"/>
        <g fill="#4CEAC5" fill-rule="nonzero">
            <path d="M31.625 39.898h-9.79A6.843 6.843 0 0 1 15 33.063v-9.228A6.843 6.843 0 0 1 21.835 17h15.493a6.843 6.843 0 0 1 6.836 6.835v5.412a1.14 1.14 0 1 1-2.279 0v-5.412a4.562 4.562 0 0 0-4.557-4.556H21.835a4.562 4.562 0 0 0-4.557 4.556v9.228a4.562 4.562 0 0 0 4.557 4.557h9.79a1.14 1.14 0 1 1 0 2.278zm2.102-9.375 5.488-4.187a1.14 1.14 0 0 0-1.382-1.812l-5.488 4.188a4.568 4.568 0 0 1-5.527 0l-5.431-4.143a1.14 1.14 0 1 0-1.382 1.812l5.432 4.142a6.826 6.826 0 0 0 4.145 1.396 6.827 6.827 0 0 0 4.145-1.396z"/>
            <path d="M39.416 43.546c-.131 0-.265-.026-.395-.08a.992.992 0 0 1-.61-1.093l.483-2.938h-1.876a1.54 1.54 0 0 1-1.378-.834 1.517 1.517 0 0 1 .112-1.57l3.342-5.342a.994.994 0 0 1 1.223-.37.992.992 0 0 1 .61 1.093l-.491 2.96h1.86a1.54 1.54 0 0 1 1.38.83 1.484 1.484 0 0 1-.114 1.555l-3.317 5.338a.993.993 0 0 1-.829.45zm.483-11.33s-3.35 5.354-3.357 5.362a.547.547 0 0 0-.047.584c.1.196.296.312.523.312h2.442a.48.48 0 0 1 .474.559l-.575 3.496c-.003.019-.006.034.029.049.028.012.041.004.051-.007l3.314-5.333a.494.494 0 0 1 .018-.027.533.533 0 0 0 .05-.57.575.575 0 0 0-.525-.308h-2.427a.48.48 0 0 1-.475-.56l.585-3.517c.003-.018.006-.034-.029-.048-.029-.012-.041-.004-.051.008z" stroke="#4CEAC5" stroke-width=".5"/>
        </g>
    </g>
</svg>
