<svg xmlns="http://www.w3.org/2000/svg" width="54" height="54" viewBox="0 0 54 54">
    <g fill="none" fill-rule="evenodd">
        <g>
            <g>
                <g>
                    <g transform="translate(-910.000000, -1250.000000) translate(10.000000, -1.000000) translate(647.000000, 1179.000000) translate(253.000000, 72.000000)">
                        <rect width="54" height="54" fill="#E5EAF8" rx="8"/>
                        <g fill="#1E29FF" fill-rule="nonzero" stroke="#E5EAF9" stroke-width=".62">
                            <path d="M18.812 10.144c-2.655 0-4.814-2.16-4.814-4.814 0-2.655 2.16-4.814 4.814-4.814s4.814 2.16 4.814 4.814-2.16 4.814-4.814 4.814zm0-6.666c-1.021 0-1.852.83-1.852 1.852 0 1.02.831 1.851 1.852 1.851 1.02 0 1.851-.83 1.851-1.851s-.83-1.852-1.851-1.852zm-11.85 7.48c-2.655 0-4.814-2.16-4.814-4.814S4.308 1.33 6.962 1.33s4.814 2.16 4.814 4.814c0 2.655-2.16 4.815-4.814 4.815zm0-6.665c-1.021 0-1.852.83-1.852 1.851s.83 1.852 1.852 1.852c1.02 0 1.851-.83 1.851-1.852 0-1.02-.83-1.851-1.851-1.851zM3.407 18.66c0-1.593 1.312-2.888 2.925-2.888h1.963c.818 0 1.481-.664 1.481-1.482s-.663-1.48-1.481-1.48H6.332c-3.247 0-5.888 2.624-5.888 5.85 0 .818.664 1.481 1.482 1.481s1.48-.663 1.48-1.48zM24.589 20.142c-.818 0-1.481-.663-1.481-1.48 0-2.16-1.769-3.918-3.942-3.918h-1.004c-2.174 0-3.942 1.757-3.942 3.917 0 .818-.663 1.481-1.481 1.481-.818 0-1.481-.663-1.481-1.48 0-3.794 3.097-6.88 6.904-6.88h1.004c3.807 0 6.904 3.086 6.904 6.88 0 .817-.663 1.48-1.481 1.48z" transform="translate(14.000000, 17.000000)"/>
                        </g>
                    </g>
                </g>
            </g>
        </g>
    </g>
</svg>
