<svg width="18" height="16" xmlns="http://www.w3.org/2000/svg">
    <path d="M15.314 5.625h-4.46V2.62C10.853 1.726 10.1 1.001 9.168 1H2.686c-.93.001-1.685.726-1.686 1.621V6.52c-.002.322.099.638.289.904.617 1.156 3.556 2.89 3.585 2.916.043.025.09.038.14.039a.273.273 0 0 0 .17-.062.25.25 0 0 0 .075-.29 10.967 10.967 0 0 1-.534-1.889h2.42v3.007c.002.894.757 1.618 1.687 1.618h4.443c-.12.643-.3 1.275-.534 1.889a.251.251 0 0 0 .075.287c.047.04.108.061.17.062.05 0 .097-.013.14-.039.029-.018 2.968-1.76 3.585-2.916.19-.266.29-.582.289-.904V7.246c-.001-.895-.756-1.62-1.686-1.621zM6.192 7.624H4.407a.271.271 0 0 0-.203.09.249.249 0 0 0-.062.208c.092.532.216 1.059.372 1.577-.925-.6-2.381-1.634-2.745-2.3a.304.304 0 0 0-.029-.05 1.059 1.059 0 0 1-.206-.63V2.62c.002-.61.517-1.106 1.152-1.107h6.482c.635.001 1.15.496 1.152 1.107v3.004H8.83c-.51 0-.992.222-1.312.604-.38 0-.757-.088-1.095-.257a3.155 3.155 0 0 0 .834-1.956h.336a.262.262 0 0 0 .268-.256.262.262 0 0 0-.268-.257h-1.39V2.69a.262.262 0 0 0-.266-.257.262.262 0 0 0-.268.257v.804H4.278a.262.262 0 0 0-.267.257c0 .142.12.257.267.257h2.443a2.638 2.638 0 0 1-.693 1.608l-.042.039a2.662 2.662 0 0 1-.668-.995.27.27 0 0 0-.346-.147.254.254 0 0 0-.154.332c.16.417.407.796.727 1.115-.39.19-.822.282-1.259.27a.262.262 0 0 0-.267.257c0 .142.12.257.267.257.6.018 1.191-.133 1.702-.434.376.23.804.37 1.248.406-.06.165-.09.339-.09.514v.377l-.954.016zm10.273 3.52c.001.225-.07.445-.205.629a.175.175 0 0 0-.027.049c-.363.665-1.822 1.7-2.747 2.312.156-.518.28-1.045.372-1.577a.249.249 0 0 0-.062-.209.271.271 0 0 0-.203-.09H8.832c-.636 0-1.15-.493-1.152-1.104V7.246c.001-.611.516-1.106 1.152-1.108h6.482c.635.002 1.15.497 1.151 1.108v3.898zm-4.133-3.952a.213.213 0 0 0-.04-.06s0-.017-.019-.025a.274.274 0 0 0-.03-.018.284.284 0 0 0-.055-.036.238.238 0 0 0-.043 0 .409.409 0 0 0-.126.013h-.03a.327.327 0 0 0-.069.041l-.018.013-.022.03a.375.375 0 0 0-.037.055l-1.603 3.854a.248.248 0 0 0 .002.196c.028.063.081.113.147.138a.26.26 0 0 0 .1.018c.109 0 .207-.064.248-.162l.465-1.123h1.777l.467 1.123c.04.098.14.162.249.162a.272.272 0 0 0 .245-.156.248.248 0 0 0 .003-.196l-1.611-3.867zM11.405 9.6l.676-1.622.673 1.622h-1.35z" fill="#3B4252" fill-rule="nonzero" stroke="#3B4252" stroke-width=".4"/>
</svg>
