<svg width="20" height="19" xmlns="http://www.w3.org/2000/svg">
    <g fill="#FFF" fill-rule="nonzero">
        <path d="M19.004 10.357v-1.79c0-1.006-.593-1.281-2.516-1.986.812-1.885 1.024-2.508.33-3.206l-1.267-1.26a1.37 1.37 0 0 0-.952-.394c-.236 0-.48 0-2.228.793C11.605.592 11.317 0 10.36 0H8.568C7.624 0 7.34.535 6.6 2.526c-1.777-.75-2.027-.75-2.25-.75-.35 0-.705.146-.949.39l-1.27 1.266c-.71.71-.466 1.375.369 3.183C.541 7.392 0 7.661 0 8.641v1.79c0 1.006.593 1.283 2.515 1.988-.811 1.883-1.02 2.506-.331 3.202l1.264 1.259c.245.25.604.399.956.399.235 0 .479 0 2.228-.795C7.399 18.407 7.685 19 8.642 19h1.795c.943 0 1.228-.536 1.97-2.53 1.778.756 2.026.756 2.248.756.349 0 .704-.147.949-.391l1.279-1.274c.701-.71.458-1.375-.376-3.176 1.908-.76 2.497-1.05 2.497-2.028zm-4.407 5.28c-.169-.046-.646-.206-1.921-.754l-.293-.127-1.171.482-.12.322c-.141.388-.544 1.481-.757 1.867l-1.595-.002c-.217-.372-.641-1.441-.813-1.874l-.123-.309-1.17-.48-.302.138c-1.263.583-1.725.747-1.87.792l-1.123-1.119c.113-.423.566-1.471.75-1.895l.135-.31-.485-1.17-.319-.116c-.43-.157-1.495-.545-1.876-.755V8.744c.372-.213 1.41-.623 1.885-.81l.306-.121.485-1.172-.148-.316c-.175-.374-.66-1.42-.785-1.848l1.12-1.116c.169.046.648.204 1.925.752l.293.128 1.168-.482.119-.323c.141-.388.544-1.48.756-1.867h1.595c.217.374.641 1.443.813 1.876l.123.309 1.169.481.303-.14c1.264-.582 1.725-.746 1.87-.79l1.124 1.118c-.113.422-.568 1.47-.75 1.895l-.135.31.487 1.174.318.115c.43.158 1.491.544 1.875.754l-.001 1.578c-.378.22-1.451.644-1.886.816l-.305.121-.483 1.173.147.315c.173.372.66 1.419.787 1.845l-1.122 1.118z"/>
        <path d="M9.503 6.552a2.838 2.838 0 0 0-2.836 2.834 2.84 2.84 0 0 0 2.836 2.836 2.84 2.84 0 0 0 2.836-2.836 2.838 2.838 0 0 0-2.836-2.834zm0 4.096c-.714 0-1.295-.567-1.295-1.262 0-.695.581-1.26 1.295-1.26.713 0 1.293.565 1.293 1.26 0 .695-.58 1.262-1.293 1.262z"/>
    </g>
</svg>
