<svg xmlns="http://www.w3.org/2000/svg" viewBox="0 0 60 60">
  <defs>
    <style>
      .cls-1 {
        fill: #ecfdf8;
      }

      .cls-2 {
        fill: #4feac5;
      }

      .cls-3 {
        fill: #51eac6;
      }
    </style>
  </defs>
  <g id="Layer_2" data-name="Layer 2">
    <g id="Layer_1-2" data-name="Layer 1">
      <rect class="cls-1" width="60" height="60" rx="12.96"/>
      <g>
        <g>
          <path class="cls-2" d="M33.63,21h7.12a6.51,6.51,0,0,1,6.63,6.67c0,1.57,0,3.13,0,4.7,0,.89-.38,1.33-1.09,1.34s-1.07-.42-1.09-1.28c0-1.53,0-3.07,0-4.61a4.25,4.25,0,0,0-4.56-4.6c-4.7,0-9.4,0-14.09,0a4.44,4.44,0,0,0-4.6,4.61c0,2.7,0,5.4,0,8.1A4.33,4.33,0,0,0,26.6,40.5h8.63a1.38,1.38,0,0,1,1.11.38,1,1,0,0,1-.43,1.71,3.53,3.53,0,0,1-1,.12c-2.83,0-5.65,0-8.48,0a6.52,6.52,0,0,1-6.56-5.2,6.14,6.14,0,0,1-.15-1.35c0-3.18-.16-6.36.08-9.53A6.44,6.44,0,0,1,26.06,21h7.57Z"/>
          <path class="cls-2" d="M33.79,35.12a6.91,6.91,0,0,1-4.24-1.39c-1.65-1.24-3.28-2.5-4.92-3.77-.65-.5-.76-1.1-.34-1.61A1.09,1.09,0,0,1,26,28.26c1.5,1.14,3,2.28,4.5,3.43,2.2,1.69,4,1.69,6.25,0l4.13-3.18.13-.09c.85-.64,1.47-.65,1.9,0s.26,1.12-.57,1.76c-1.48,1.13-2.95,2.27-4.44,3.4a7,7,0,0,1-2.74,1.38C34.6,35,34.07,35.08,33.79,35.12Z"/>
          <path class="cls-3" d="M44.59,35.52c-.12.7-.22,1.39-.36,2.09-.07.36,0,.5.42.5a6.76,6.76,0,0,1,1.35.08,1.64,1.64,0,0,1,1.08,2.48c-1,1.68-2,3.35-3.1,5a1.18,1.18,0,0,1-1.54.59,1.22,1.22,0,0,1-.72-1.5c.13-.59.17-1.2.31-1.79.09-.42-.05-.54-.45-.52a8.15,8.15,0,0,1-1.21,0,1.63,1.63,0,0,1-1.29-2.37c1.05-1.78,2.18-3.52,3.28-5.26a1.14,1.14,0,0,1,1.45-.48A1.15,1.15,0,0,1,44.59,35.52Zm-1.11,8.19c.84-1.13,1.53-2.37,2.27-3.56.27-.44.06-.59-.38-.59H43.63c-.77,0-1-.26-1-1,0-.54.3-1,.1-1.75-.81,1.3-1.56,2.48-2.29,3.68-.23.38-.1.63.38.62s1.21,0,1.81,0c.77,0,1,.26.91,1,0,.5-.13,1-.19,1.5-.08.07-.13.2,0,.24S43.44,43.77,43.48,43.71Z"/>
        </g>
        <path class="cls-2" d="M16.13,33.85A6.22,6.22,0,0,1,16,32.5c0-3.18-.15-6.37.09-9.54a6.44,6.44,0,0,1,6.22-5.65H37a6.65,6.65,0,0,1,4.08,1.33h0l-1.39,1.68h0a4.85,4.85,0,0,0-2.83-.8c-4.69,0-9.39,0-14.08,0a4.45,4.45,0,0,0-4.61,4.62c0,2.7,0,5.4,0,8.1"/>
        <path class="cls-2" d="M18.16,31.55v7a1.4,1.4,0,0,1-.29,1,1.06,1.06,0,0,1-1.82-.53A4.22,4.22,0,0,1,16,38.3c0-2.26,0-4.52,0-6.78"/>
        <path class="cls-2" d="M41,18.58c.68.56.79,1.13.35,1.68s-1,.57-1.67,0"/>
        <path class="cls-2" d="M12.82,30.16a6.15,6.15,0,0,1-.16-1.35c0-3.18-.15-6.36.09-9.53A6.44,6.44,0,0,1,19,13.63H33.66A6.72,6.72,0,0,1,37.74,15h0l-1.39,1.67h0a5,5,0,0,0-2.83-.8c-4.69,0-9.39.05-14.08,0a4.45,4.45,0,0,0-4.61,4.61c0,2.7,0,5.41,0,8.11"/>
        <path class="cls-2" d="M14.85,27.2v7a1.37,1.37,0,0,1-.29,1,1.06,1.06,0,0,1-1.82-.52,3.52,3.52,0,0,1-.07-.79c0-2.25,0-4.49,0-6.74"/>
        <path class="cls-2" d="M37.66,14.89c.68.57.79,1.13.35,1.69s-1,.57-1.67.05"/>
      </g>
    </g>
  </g>
</svg>
