<svg width="60" height="60" xmlns="http://www.w3.org/2000/svg">
    <g fill="none" fill-rule="evenodd">
        <rect fill="#FEEDEF" width="60" height="60" rx="12"/>
        <g fill="#FD4D5C" fill-rule="nonzero">
            <path d="M29.328 39.869h-6.8A6.535 6.535 0 0 1 16 33.34v-8.813c0-3.6 2.928-6.528 6.528-6.528h14.797c3.6 0 6.528 2.929 6.528 6.528v5.168a1.088 1.088 0 1 1-2.176 0v-5.168c0-2.4-1.953-4.352-4.352-4.352H22.528a4.357 4.357 0 0 0-4.352 4.352v8.813c0 2.4 1.952 4.352 4.352 4.352h6.8a1.088 1.088 0 1 1 0 2.176zm4.557-8.954 5.242-3.999a1.088 1.088 0 0 0-1.32-1.73l-5.241 4a4.363 4.363 0 0 1-5.279 0L22.1 25.228a1.088 1.088 0 1 0-1.32 1.73l5.187 3.956a6.52 6.52 0 0 0 3.96 1.334 6.52 6.52 0 0 0 3.958-1.334z"/>
            <path d="M42.228 36.52c.305 0 .578.19.686.475l1.928 5.142a.352.352 0 0 1-.33.476.733.733 0 0 1-.686-.476l-.393-1.048h-2.411l-.393 1.048a.733.733 0 0 1-.686.476.352.352 0 0 1-.33-.476l1.929-5.142a.733.733 0 0 1 .686-.475zm-4.316-4.062c.28 0 .508.227.508.508v.507h3.045a.509.509 0 1 1 0 1.018h-.979c-.37 1.199-1 2.33-1.884 3.316l-.015.015c.59.728.95 1.17 1.081 1.326a.506.506 0 0 1 0 .637c-.103.12-.348.08-.49.04-.213-.059-.635-.484-1.266-1.274l-2.18 2.18a.506.506 0 1 1-.716-.716v-.001l2.22-2.194c-.34-.379-.733-.952-1.178-1.72a.46.46 0 0 1 .681-.596l.1.093c.332.354.644 1.13 1.073 1.608a8.019 8.019 0 0 0 1.61-2.721h-5.167a.505.505 0 0 1 0-1.01h3.05v-.508c0-.28.226-.508.507-.508zm4.316 5.415-.825 2.2h1.65l-.825-2.2z" stroke="#FD4D5C" stroke-width=".5"/>
        </g>
    </g>
</svg>
