<svg xmlns="http://www.w3.org/2000/svg" width="54" height="54" viewBox="0 0 54 54">
    <g fill="none" fill-rule="evenodd">
        <g>
            <g>
                <g>
                    <g>
                        <g fill="#FFD5C7" transform="translate(-283.000000, -1332.000000) translate(10.000000, -1.000000) translate(261.000000, 1321.000000) translate(12.000000, 12.000000)">
                            <rect width="54" height="54" rx="12"/>
                        </g>
                        <g fill="#F50" fill-rule="nonzero">
                            <path d="M31.438 19.678l2.004-2.004c.37-.37.37-.968 0-1.337-.369-.369-.967-.369-1.336 0L30.1 18.342c-.369.369-.369.967 0 1.336.37.37.968.37 1.337 0z" transform="translate(-283.000000, -1332.000000) translate(10.000000, -1.000000) translate(261.000000, 1321.000000) translate(12.000000, 12.000000) translate(8.000000, 8.000000) translate(31.771860, 18.007622) rotate(-315.000000) translate(-31.771860, -18.007622)"/>
                            <path d="M29.399 9.974v2.646c0 .521.423.945.945.945s.945-.424.945-.945V9.974c0-.522-.423-.945-.945-.945s-.945.423-.945.945z" transform="translate(-283.000000, -1332.000000) translate(10.000000, -1.000000) translate(261.000000, 1321.000000) translate(12.000000, 12.000000) translate(8.000000, 8.000000) translate(30.343772, 11.296578) rotate(-315.000000) translate(-30.343772, -11.296578)"/>
                            <path d="M32.612 24.714c0-.522-.423-.945-.945-.945H29.02c-.522 0-.945.423-.945.945s.423.945.945.945h2.646c.522 0 .945-.423.945-.945z" transform="translate(-283.000000, -1332.000000) translate(10.000000, -1.000000) translate(261.000000, 1321.000000) translate(12.000000, 12.000000) translate(8.000000, 8.000000) translate(30.343772, 24.713810) rotate(-315.000000) translate(-30.343772, -24.713810)"/>
                            <path d="M8.788 30.093c1.922 1.355 4.544 1.316 6.524-.034l.795-.541 2.25 2.251c1.106 1.105 2.904 1.105 4.01 0l2.673-2.673c.369-.369.369-.967 0-1.336-.37-.37-.968-.37-1.337 0l-.668.668-2.16-2.16 5.984-4.078c1.136-.774 2.066-1.231 3.092-.211l.466.467c.37.369.968.369 1.337 0 .369-.37.369-.968 0-1.337L16.32 5.677c-.369-.37-.967-.37-1.336 0-.37.369-.37.967 0 1.336l.46.46c1.026 1.026.571 1.96-.204 3.098L7.235 22.318c-1.688 2.477-1.043 5.944 1.553 7.775zm12.91-.329l-.668.669c-.368.368-.967.368-1.336 0l-1.998-1.998 1.59-1.084 2.413 2.413zm-4.895-18.129c.424-.622.678-1.32.768-2.035l10.26 10.26c-.716.09-1.414.344-2.036.768l-7.87 5.363-6.486-6.486 5.364-7.87zM8.797 23.382l1.559-2.287 5.98 5.98-2.088 1.423c-1.351.92-3.108.94-4.37.05-1.714-1.208-2.199-3.526-1.081-5.166z" transform="translate(-283.000000, -1332.000000) translate(10.000000, -1.000000) translate(261.000000, 1321.000000) translate(12.000000, 12.000000) translate(8.000000, 8.000000) translate(19.165255, 18.998994) rotate(-315.000000) translate(-19.165255, -18.998994)"/>
                        </g>
                    </g>
                </g>
            </g>
        </g>
    </g>
</svg>
