<svg width="54" height="54" xmlns="http://www.w3.org/2000/svg">
    <g fill="none" fill-rule="evenodd">
        <rect fill="#FEF6DD" width="54" height="54" rx="12"/>
        <path d="M27.08 21.64c2.978 0 5.4 2.422 5.4 5.4s-2.422 5.4-5.4 5.4a5.406 5.406 0 0 1-5.4-5.4c0-2.978 2.422-5.4 5.4-5.4zm-6.879 1.915a.81.81 0 1 1 0 1.62h-.81a5.758 5.758 0 0 0-5.75 5.751.81.81 0 1 1-1.62 0c0-4.064 3.306-7.371 7.37-7.371h.81zm6.879-.315a3.804 3.804 0 0 0-3.8 3.8c0 2.095 1.705 3.8 3.8 3.8 2.095 0 3.8-1.705 3.8-3.8 0-2.095-1.705-3.8-3.8-3.8zm0 1.36a.8.8 0 0 1 .8.8v.84h.56a.8.8 0 1 1 0 1.6h-1.36a.8.8 0 0 1-.8-.8V25.4a.8.8 0 0 1 .8-.8zM19.918 11a5.474 5.474 0 0 1 5.467 5.467 5.474 5.474 0 0 1-5.467 5.468 5.474 5.474 0 0 1-5.468-5.468A5.474 5.474 0 0 1 19.918 11zm0 1.62a3.852 3.852 0 0 0-3.848 3.847 3.852 3.852 0 0 0 3.848 3.848 3.852 3.852 0 0 0 3.847-3.848 3.852 3.852 0 0 0-3.847-3.847z" fill="#F5C11A" fill-rule="nonzero"/>
    </g>
</svg>