<svg width="60" height="60" xmlns="http://www.w3.org/2000/svg">
    <g fill="none" fill-rule="evenodd">
        <rect fill="#F1E7FF" width="60" height="60" rx="12"/>
        <g fill="#6D1BFF" fill-rule="nonzero">
            <path d="M37.703 44.65H21.95A6.958 6.958 0 0 1 15 37.7v-9.745a6.99 6.99 0 0 1 2.735-5.526l7.877-6.007a6.967 6.967 0 0 1 8.429 0l7.876 6.007a6.99 6.99 0 0 1 2.735 5.526v9.746a6.958 6.958 0 0 1-6.95 6.95zm-7.877-27.333c-.991 0-1.982.316-2.81.947L19.14 24.27a4.66 4.66 0 0 0-1.823 3.684v9.746a4.638 4.638 0 0 0 4.633 4.633h15.753a4.638 4.638 0 0 0 4.633-4.633v-9.746a4.66 4.66 0 0 0-1.824-3.684l-7.876-6.007a4.627 4.627 0 0 0-2.81-.947zm4.215 17.801 5.58-4.257a1.158 1.158 0 0 0-1.405-1.842l-5.58 4.257a4.645 4.645 0 0 1-5.62 0l-5.523-4.2a1.158 1.158 0 1 0-1.403 1.844l5.522 4.198a6.94 6.94 0 0 0 4.214 1.42 6.941 6.941 0 0 0 4.215-1.42z"/>
            <path d="M26.178 26.755a1.158 1.158 0 0 1-.82-1.975l1.833-1.844a3.77 3.77 0 0 1 5.325-.002l1.838 1.845a1.158 1.158 0 1 1-1.642 1.635l-1.836-1.844a1.449 1.449 0 0 0-2.045.002l-1.832 1.841a1.155 1.155 0 0 1-.821.342zm4.864 4.112v-3.591a1.158 1.158 0 1 0-2.316 0v3.59a1.158 1.158 0 1 0 2.316 0z"/>
        </g>
    </g>
</svg>
