<?xml version="1.0" encoding="UTF-8"?>
<svg width="18px" height="22px" viewBox="0 0 18 22" version="1.1" xmlns="http://www.w3.org/2000/svg" xmlns:xlink="http://www.w3.org/1999/xlink">
    <title>np_report_2120939_000000</title>
    <g id="Page-1" stroke="none" stroke-width="1" fill="none" fill-rule="evenodd">
        <g id="31.-Settings" transform="translate(-53.000000, -532.000000)" fill="#FFFFFF" fill-rule="nonzero" stroke="#FFFFFF" stroke-width="0.2">
            <g id="Group-9" transform="translate(20.000000, 20.000000)">
                <g id="np_report_2120939_000000" transform="translate(34.000000, 513.000000)">
                    <path d="M15.013604,0 L3.37320953,0 C2.83818161,0 2.38590863,0.441968501 2.38590863,1.00961286 L2.38590863,2.46035301 L0.987300902,2.46035301 C0.452272984,2.46035301 0,2.90232151 0,3.46996587 L0,18.9903871 C0,19.5375061 0.432201211,20 0.987300902,20 L12.6067187,20 C13.1417466,20 13.5940196,19.5580315 13.5940196,18.9903871 L13.5940196,17.5601724 L15.0126991,17.5601724 C15.547727,17.5601724 16,17.1182039 16,16.5505595 L16,1.00973904 C15.9799165,0.442094682 15.547727,0 15.0135011,0 L15.013604,0 Z M12.9771622,18.9689364 C12.9771622,19.1792374 12.812479,19.3262798 12.6277159,19.3262798 L0.987321467,19.3262798 C0.781668055,19.3262798 0.637875189,19.157875 0.637875189,18.9689364 L0.637875189,3.44851517 C0.637875189,3.23821421 0.802558328,3.09117178 0.987321467,3.09117178 L2.38592919,3.09117178 L2.38592919,16.5504333 C2.38592919,17.0975523 2.8181304,17.5600462 3.3732301,17.5600462 L12.9570904,17.5600462 L12.9570904,18.9688944 L12.9771622,18.9689364 Z M15.3631531,16.5298659 C15.3631531,16.7401669 15.1984699,16.9085759 14.9928124,16.9085759 L3.37339462,16.9077544 C3.16774121,16.9077544 3.00305395,16.7393496 3.00305395,16.5290445 L3.00305395,1.00946438 C3.00305395,0.799163423 3.16773709,0.630754413 3.37339462,0.630754413 L14.9928124,0.630754413 C15.1984658,0.630754413 15.3631531,0.799159217 15.3631531,1.00946438 L15.3631531,16.5298659 Z" id="Shape"></path>
                    <path d="M6.54175264,6.90075531 L8.19728889,5.17344753 L9.04619478,6.05915555 C9.17386173,6.19235718 9.36453448,6.19235718 9.49220993,6.05915555 L11.2538594,4.22113426 L11.5721991,4.55327477 C11.6567586,4.64150015 11.8267011,4.59738746 11.8267011,4.46504939 L11.9966478,3.18059562 C12.0182015,3.06988212 11.9328143,2.98165674 11.8267011,3.0032813 L10.5956178,3.18059562 C10.4679508,3.20308375 10.4256711,3.35790994 10.5110583,3.44613089 L10.829398,3.77827139 L9.30153718,5.37236869 L8.45263129,4.48666067 C8.32496434,4.35345904 8.13429159,4.35345904 8.00661614,4.48666067 L6.09575022,6.43539546 C5.96808326,6.56859709 5.96808326,6.76753597 6.09575022,6.90074645 C6.22341717,7.03308452 6.41408992,7.03308452 6.54176537,6.90074645 L6.54175264,6.90075531 Z" id="Path"></path>
                    <path d="M11.6953868,11 L5.28611134,11 C5.13336985,11 5,11.2330733 5,11.5 C5,11.7669267 5.13336985,12 5.28611134,12 L11.7138887,12 C11.8666302,12 12,11.7669267 12,11.5 C11.9813728,11.20052 11.8666302,11 11.6952533,11 L11.6953868,11 Z" id="Path"></path>
                    <path d="M11.6953868,14 L5.28611134,14 C5.13336985,14 5,14.2330733 5,14.5 C5,14.7669267 5.13336985,15 5.28611134,15 L11.7138887,15 C11.8666302,15 12,14.7669267 12,14.5 C11.9813728,14.19922 11.8666302,14 11.6952533,14 L11.6953868,14 Z" id="Path"></path>
                    <path d="M11.6953868,8.46428571 L5.57222268,8.46428571 L5.57222268,4.26785714 C5.57222268,4.12486071 5.43885283,4 5.28611134,4 C5.13336985,4 5,4.12486071 5,4.26785714 L5,8.73214286 C5,8.87513929 5.13336985,9 5.28611134,9 L11.7138887,9 C11.8666302,9 12,8.87513929 12,8.73214286 C11.9813728,8.57101071 11.8666302,8.46428571 11.6952533,8.46428571 L11.6953868,8.46428571 Z" id="Path"></path>
                </g>
            </g>
        </g>
    </g>
</svg>