<svg xmlns="http://www.w3.org/2000/svg" width="54" height="54" viewBox="0 0 54 54">
    <g fill="none" fill-rule="evenodd">
        <g>
            <g>
                <g>
                    <g transform="translate(-283.000000, -1242.000000) translate(10.000000, -1.000000) translate(261.000000, 1231.000000) translate(12.000000, 12.000000)">
                        <rect width="54" height="54" fill="#E5DDFF" rx="12"/>
                        <g fill="#5F3FC5" fill-rule="nonzero">
                            <path d="M1.023 25.55c-.551 0-.998-.447-.998-.998 0-5.008 4.074-9.082 9.082-9.082h1.497c1.1 0 2.175.194 3.196.578.516.194.777.77.583 1.286-.194.516-.77.777-1.285.583-.796-.3-1.635-.451-2.494-.451H9.107c-3.907 0-7.086 3.179-7.086 7.086 0 .551-.447.998-.998.998zm15.47-18.813C16.493 3.022 13.47 0 9.756 0 6.04 0 3.019 3.022 3.019 6.737c0 3.715 3.022 6.737 6.737 6.737 3.715 0 6.737-3.022 6.737-6.737zm-1.996 0c0 2.614-2.127 4.74-4.741 4.74s-4.74-2.126-4.74-4.74c0-2.614 2.126-4.74 4.74-4.74 2.614 0 4.74 2.126 4.74 4.74zM21.583 23.554c-.551 0-.998-.447-.998-.998V19.92c0-.583-.474-1.057-1.057-1.057h-2.636c-.551 0-.998-.447-.998-.998 0-.551.447-.998.998-.998h2.636c1.683 0 3.053 1.37 3.053 3.053v2.636c0 .551-.447.998-.998.998zm-2.473-1.607c.381-.398.367-1.03-.032-1.41-.399-.381-1.03-.367-1.411.032-1.842 1.929-4.428 3.035-7.095 3.035h-.467c-.551 0-.998.447-.998.998 0 .551.447.998.998.998h.467c3.21 0 6.322-1.331 8.538-3.653z" transform="translate(15.000000, 14.000000)"/>
                        </g>
                    </g>
                </g>
            </g>
        </g>
    </g>
</svg>
