<svg width="29" height="29" xmlns="http://www.w3.org/2000/svg" viewBox="0 0 29 29">
    <!-- <g fill="#1a55af" fill-rule="nonzero"> -->
      <path d="M9.333 2.139 5.565 5.906a.333.333 0 0 1-.471-.471L8.86 1.667h-2.53a.334.334 0 1 1 0-.667h3.335a.334.334 0 0 1 .334.334V4.67a.334.334 0 1 1-.667 0V2.139zM3.667 2H1.999C1.448 2 1 2.502 1 3.122v6.756C1 10.497 1.453 11 2.001 11H8c.266 0 .52-.118.708-.33A1.2 1.2 0 0 0 9 9.874V8c0-.207-.15-.375-.333-.375-.184 0-.334.168-.334.375v1.874c0 .1-.034.195-.097.266a.317.317 0 0 1-.237.11H2c-.183 0-.331-.166-.334-.372V3.122c0-.206.148-.372.332-.372h1.668c.184 0 .333-.168.333-.375S3.851 2 3.667 2z" fill="#1a55af" fill-rule="nonzero" stroke="#1a55af" transform="translate(-283.000000, -1332.000000) translate(10.000000, -1.000000) translate(261.000000, 1321.000000) translate(14.000000, 12.000000) translate(8.000000, 8.000000)" />
    <!-- </g> -->
</svg>
